<svg width="202" height="168" viewBox="0 0 202 168" fill="none" xmlns="http://www.w3.org/2000/svg">
<path d="M94.0578 168C140.343 168 177.867 130.465 177.867 84C177.867 37.5354 140.343 0 94.0578 0C47.7729 0 10.249 37.5354 10.249 84C10.249 130.465 47.7729 168 94.0578 168Z" fill="#454545"/>
<path d="M187.454 49.4419C191.197 49.4419 194.232 46.4066 194.232 42.6623C194.232 38.9181 191.197 35.8828 187.454 35.8828C183.711 35.8828 180.677 38.9181 180.677 42.6623C180.677 46.4066 183.711 49.4419 187.454 49.4419Z" fill="#454545"/>
<path d="M197.372 22.8193C199.928 22.8193 202 20.7462 202 18.1889C202 15.6317 199.928 13.5586 197.372 13.5586C194.815 13.5586 192.743 15.6317 192.743 18.1889C192.743 20.7462 194.815 22.8193 197.372 22.8193Z" fill="#454545"/>
<path d="M4.62849 54.2373C7.18474 54.2373 9.25699 52.1642 9.25699 49.6069C9.25699 47.0496 7.18474 44.9766 4.62849 44.9766C2.07225 44.9766 0 47.0496 0 49.6069C0 52.1642 2.07225 54.2373 4.62849 54.2373Z" fill="#454545"/>
<path d="M13.2237 154.937C17.971 154.937 21.8195 151.087 21.8195 146.339C21.8195 141.59 17.971 137.74 13.2237 137.74C8.47639 137.74 4.62793 141.59 4.62793 146.339C4.62793 151.087 8.47639 154.937 13.2237 154.937Z" fill="#454545"/>
<path d="M145.962 35.0536V104.006C145.962 108.14 142.49 111.613 138.358 111.613H24.2983C20.1657 111.613 16.6943 108.306 16.6943 104.006V35.0536C16.6943 30.9197 20.1657 27.4473 24.2983 27.4473H138.358C142.49 27.4473 145.962 30.9197 145.962 35.0536Z" fill="#2B2B2B"/>
<path d="M166.294 146.337H60.3349C53.8881 146.337 48.7637 141.211 48.7637 134.762V73.7467C48.7637 67.2979 53.8881 62.1719 60.3349 62.1719H166.294C172.741 62.1719 177.866 67.2979 177.866 73.7467V134.762C177.866 141.211 172.741 146.337 166.294 146.337Z" fill="#2B2B2B" stroke="white" stroke-opacity="0.1" stroke-miterlimit="10"/>
<path d="M81.4941 127.323H64.6331C63.1454 127.323 61.9883 126.165 61.9883 124.677C61.9883 123.189 63.1454 122.031 64.6331 122.031H81.4941C82.9818 122.031 84.1389 123.189 84.1389 124.677C84.1389 126.165 82.9818 127.323 81.4941 127.323Z" fill="#454545"/>
<path d="M81.4941 126.823H64.6331C63.4217 126.823 62.4883 125.89 62.4883 124.677C62.4883 123.465 63.4217 122.531 64.6331 122.531H81.4941C82.7055 122.531 83.6389 123.465 83.6389 124.677C83.6389 125.89 82.7055 126.823 81.4941 126.823Z" stroke="white" stroke-opacity="0.1"/>
<path d="M108.768 127.323H91.9075C90.4198 127.323 89.2627 126.165 89.2627 124.677C89.2627 123.189 90.4198 122.031 91.9075 122.031H108.768C110.256 122.031 111.413 123.189 111.413 124.677C111.413 126.165 110.256 127.323 108.768 127.323Z" fill="#454545"/>
<path d="M108.768 126.823H91.9075C90.6961 126.823 89.7627 125.89 89.7627 124.677C89.7627 123.465 90.6961 122.531 91.9075 122.531H108.768C109.98 122.531 110.913 123.465 110.913 124.677C110.913 125.89 109.98 126.823 108.768 126.823Z" stroke="white" stroke-opacity="0.1"/>
<path d="M136.044 127.323H119.183C117.695 127.323 116.538 126.165 116.538 124.677C116.538 123.189 117.695 122.031 119.183 122.031H136.044C137.532 122.031 138.689 123.189 138.689 124.677C138.689 126.165 137.532 127.323 136.044 127.323Z" fill="#454545"/>
<path d="M136.044 126.823H119.183C117.972 126.823 117.038 125.89 117.038 124.677C117.038 123.465 117.972 122.531 119.183 122.531H136.044C137.255 122.531 138.189 123.465 138.189 124.677C138.189 125.89 137.255 126.823 136.044 126.823Z" stroke="white" stroke-opacity="0.1"/>
<path d="M163.319 127.323H146.458C144.971 127.323 143.813 126.165 143.813 124.677C143.813 123.189 144.971 122.031 146.458 122.031H163.319C164.807 122.031 165.964 123.189 165.964 124.677C165.964 126.165 164.807 127.323 163.319 127.323Z" fill="#454545"/>
<path d="M163.319 126.823H146.458C145.247 126.823 144.313 125.89 144.313 124.677C144.313 123.465 145.247 122.531 146.458 122.531H163.319C164.531 122.531 165.464 123.465 165.464 124.677C165.464 125.89 164.531 126.823 163.319 126.823Z" stroke="white" stroke-opacity="0.1"/>
<path d="M157.202 95.5749C162.68 95.5749 167.121 91.133 167.121 85.6537C167.121 80.1743 162.68 75.7324 157.202 75.7324C151.725 75.7324 147.284 80.1743 147.284 85.6537C147.284 91.133 151.725 95.5749 157.202 95.5749Z" fill="#454545"/>
<path d="M144.144 95.5749C149.621 95.5749 154.062 91.133 154.062 85.6537C154.062 80.1743 149.621 75.7324 144.144 75.7324C138.666 75.7324 134.226 80.1743 134.226 85.6537C134.226 91.133 138.666 95.5749 144.144 95.5749Z" fill="#454545"/>
<path d="M145.961 41.502H16.8594V57.7067H145.961V41.502Z" fill="#8B8B8B"/>
<path d="M82.9828 98.7158H64.4688C63.1464 98.7158 61.9893 97.5583 61.9893 96.2354V84.3299C61.9893 83.0071 63.1464 81.8496 64.4688 81.8496H82.8175C84.1399 81.8496 85.297 83.0071 85.297 84.3299V96.2354C85.4623 97.5583 84.3052 98.7158 82.9828 98.7158Z" fill="#8B8B8B"/>
</svg>
