<svg width="203" height="170" viewBox="0 0 203 170" fill="none" xmlns="http://www.w3.org/2000/svg">
<path d="M94.5245 169C141.039 169 178.748 131.465 178.748 85C178.748 38.5354 141.039 1 94.5245 1C48.0104 1 10.3008 38.5354 10.3008 85C10.3008 131.465 48.0104 169 94.5245 169Z" fill="#F1F3F9" stroke="#D6DCE8" stroke-width="2" stroke-miterlimit="10"/>
<path d="M188.381 50.4419C192.143 50.4419 195.192 47.4066 195.192 43.6623C195.192 39.9181 192.143 36.8828 188.381 36.8828C184.62 36.8828 181.57 39.9181 181.57 43.6623C181.57 47.4066 184.62 50.4419 188.381 50.4419Z" fill="#F1F3F9"/>
<path d="M198.347 23.8203C200.916 23.8203 202.998 21.7472 202.998 19.1899C202.998 16.6326 200.916 14.5596 198.347 14.5596C195.778 14.5596 193.695 16.6326 193.695 19.1899C193.695 21.7472 195.778 23.8203 198.347 23.8203Z" fill="#F1F3F9"/>
<path d="M4.65141 55.2373C7.22031 55.2373 9.30281 53.1642 9.30281 50.6069C9.30281 48.0496 7.22031 45.9766 4.65141 45.9766C2.08251 45.9766 0 48.0496 0 50.6069C0 53.1642 2.08251 55.2373 4.65141 55.2373Z" fill="#F1F3F9"/>
<path d="M13.2868 155.937C18.0576 155.937 21.9251 152.087 21.9251 147.339C21.9251 142.59 18.0576 138.74 13.2868 138.74C8.51595 138.74 4.64844 142.59 4.64844 147.339C4.64844 152.087 8.51595 155.937 13.2868 155.937Z" fill="#F1F3F9"/>
<path d="M146.684 36.0545V105.007C146.684 109.141 143.196 112.614 139.043 112.614H24.4189C20.2659 112.614 16.7773 109.307 16.7773 105.007V36.0545C16.7773 31.9207 20.2659 28.4482 24.4189 28.4482H139.043C143.196 28.4482 146.684 31.9207 146.684 36.0545Z" fill="#F1F3F9" stroke="#D6DCE8" stroke-width="2" stroke-miterlimit="10"/>
<path d="M167.116 147.338H60.6324C54.1537 147.338 49.0039 142.212 49.0039 135.763V74.7477C49.0039 68.2988 54.1537 63.1729 60.6324 63.1729H167.116C173.595 63.1729 178.745 68.2988 178.745 74.7477V135.763C178.745 142.212 173.595 147.338 167.116 147.338Z" fill="white" stroke="#D6DCE8" stroke-width="2" stroke-miterlimit="10"/>
<path d="M81.8953 128.323H64.9509C63.4558 128.323 62.293 127.165 62.293 125.677C62.293 124.189 63.4558 123.031 64.9509 123.031H81.8953C83.3904 123.031 84.5533 124.189 84.5533 125.677C84.5533 127.165 83.3904 128.323 81.8953 128.323Z" fill="#D6DCE8"/>
<path d="M109.305 128.323H92.3611C90.866 128.323 89.7031 127.165 89.7031 125.677C89.7031 124.189 90.866 123.031 92.3611 123.031H109.305C110.801 123.031 111.963 124.189 111.963 125.677C111.963 127.165 110.801 128.323 109.305 128.323Z" fill="#D6DCE8"/>
<path d="M136.716 128.323H119.771C118.276 128.323 117.113 127.165 117.113 125.677C117.113 124.189 118.276 123.031 119.771 123.031H136.716C138.211 123.031 139.374 124.189 139.374 125.677C139.374 127.165 138.211 128.323 136.716 128.323Z" fill="#D6DCE8"/>
<path d="M164.126 128.323H147.181C145.686 128.323 144.523 127.165 144.523 125.677C144.523 124.189 145.686 123.031 147.181 123.031H164.126C165.621 123.031 166.784 124.189 166.784 125.677C166.784 127.165 165.621 128.323 164.126 128.323Z" fill="#D6DCE8"/>
<path d="M157.979 96.5749C163.484 96.5749 167.946 92.133 167.946 86.6537C167.946 81.1743 163.484 76.7324 157.979 76.7324C152.474 76.7324 148.012 81.1743 148.012 86.6537C148.012 92.133 152.474 96.5749 157.979 96.5749Z" fill="#AAB2C5"/>
<path d="M144.854 96.5749C150.359 96.5749 154.821 92.133 154.821 86.6537C154.821 81.1743 150.359 76.7324 144.854 76.7324C139.349 76.7324 134.887 81.1743 134.887 86.6537C134.887 92.133 139.349 96.5749 144.854 96.5749Z" fill="#D6DCE8"/>
<path d="M146.682 42.5029H16.9414V58.7077H146.682V42.5029Z" fill="#AAB2C5"/>
<path d="M83.3904 99.7167H64.7848C63.4558 99.7167 62.293 98.5592 62.293 97.2364V85.3309C62.293 84.0081 63.4558 82.8506 64.7848 82.8506H83.2243C84.5533 82.8506 85.7161 84.0081 85.7161 85.3309V97.2364C85.8822 98.5592 84.7194 99.7167 83.3904 99.7167Z" fill="#D6DCE8"/>
</svg>
