<svg width="198" height="216" viewBox="0 0 198 216" fill="none" xmlns="http://www.w3.org/2000/svg">
<rect y="176" width="198" height="40" rx="8" fill="#FCD535"/>
<path d="M79.481 201.109C79.6556 201.293 79.7841 201.485 79.8665 201.684C79.9537 201.887 79.9974 202.081 79.9974 202.265C79.9974 202.702 79.8762 203.095 79.6337 203.444C79.3962 203.798 79.0713 204.098 78.6592 204.345C78.2471 204.593 77.7671 204.784 77.2192 204.92C76.6713 205.056 76.0895 205.124 75.4738 205.124H73.6119C73.2241 205.124 72.8507 205.078 72.4919 204.985C72.138 204.898 71.8059 204.77 71.4956 204.6C71.1853 204.435 70.8992 204.232 70.6374 203.989C70.3804 203.752 70.1525 203.482 69.9538 203.182C69.4834 202.421 69.2483 201.531 69.2483 200.513C69.2483 199.882 69.3331 199.23 69.5028 198.556C69.6774 197.882 69.9586 197.143 70.3465 196.338L71.7574 197.022C71.5974 197.366 71.4592 197.693 71.3428 198.004C71.2265 198.309 71.1295 198.605 71.0519 198.891C70.9792 199.172 70.9259 199.444 70.8919 199.705C70.858 199.967 70.841 200.224 70.841 200.476C70.841 201.199 71.001 201.815 71.321 202.324C71.5537 202.712 71.8713 203.007 72.2738 203.211C72.6762 203.415 73.1222 203.516 73.6119 203.516H75.4738C75.8616 203.516 76.2277 203.478 76.5719 203.4C76.9162 203.322 77.2168 203.218 77.4738 203.087C77.7356 202.956 77.9441 202.801 78.0992 202.622C78.2544 202.447 78.3392 202.258 78.3538 202.055C78.2131 201.895 78.0265 201.756 77.7937 201.64C77.561 201.528 77.2992 201.436 77.0083 201.364C76.7222 201.291 76.4144 201.233 76.0847 201.189C75.755 201.15 75.4204 201.124 75.081 201.109L75.1319 199.516H81.7283V201.109H79.481ZM83.9189 195.051C83.9286 195.08 83.948 195.16 83.9771 195.291C84.0062 195.417 84.0401 195.575 84.0789 195.764C84.1226 195.953 84.1638 196.161 84.2026 196.389C84.2462 196.617 84.285 196.847 84.3189 197.08C84.3577 197.308 84.3892 197.531 84.4135 197.749C84.4377 197.962 84.4498 198.149 84.4498 198.309C84.4498 198.789 84.3698 199.206 84.2098 199.56C84.0498 199.914 83.8413 200.205 83.5844 200.433C83.3323 200.661 83.0462 200.83 82.7262 200.942C82.4062 201.053 82.0862 201.109 81.7662 201.109H79.8026V199.516H81.8171C81.8801 199.516 81.9723 199.507 82.0935 199.487C82.2195 199.468 82.3432 199.419 82.4644 199.342C82.5856 199.259 82.6898 199.138 82.7771 198.978C82.8692 198.818 82.9153 198.595 82.9153 198.309C82.9153 198.202 82.9056 198.069 82.8862 197.909C82.8668 197.749 82.8426 197.577 82.8135 197.393C82.7844 197.208 82.7504 197.019 82.7116 196.825C82.6729 196.632 82.6341 196.45 82.5953 196.28C82.5613 196.11 82.5274 195.958 82.4935 195.822C82.4595 195.686 82.4329 195.582 82.4135 195.509L83.9189 195.051ZM81.4535 192.076L82.6607 190.855L83.8971 192.091L82.6753 193.313L81.4535 192.076ZM89.6201 201.109C89.1158 201.109 88.6843 201.078 88.3255 201.015C87.9667 200.952 87.6637 200.857 87.4164 200.731C87.174 200.605 86.9776 200.447 86.8273 200.258C86.6819 200.064 86.5704 199.839 86.4928 199.582C86.4152 199.32 86.3643 199.027 86.3401 198.702C86.3158 198.377 86.3037 198.016 86.3037 197.618V190.622H87.8964V197.618C87.8964 198.025 87.9085 198.355 87.9328 198.607C87.9619 198.855 88.0322 199.046 88.1437 199.182C88.2601 199.318 88.4322 199.407 88.6601 199.451C88.8928 199.495 89.2128 199.516 89.6201 199.516V201.109ZM95.4116 199.516V201.109H94.8807C94.4541 201.109 94.071 201.051 93.7316 200.935C93.3923 200.813 93.1135 200.636 92.8953 200.404C92.6335 200.632 92.3135 200.806 91.9353 200.927C91.562 201.048 91.1377 201.109 90.6626 201.109H89.3316V199.516H90.6626C90.9826 199.516 91.2371 199.485 91.4262 199.422C91.6201 199.359 91.7656 199.281 91.8626 199.189C91.9595 199.092 92.0226 198.988 92.0516 198.876C92.0807 198.76 92.0953 198.648 92.0953 198.542V196.076H93.6807V198.491C93.6807 198.656 93.705 198.796 93.7535 198.913C93.8068 199.024 93.8723 199.119 93.9498 199.196C94.0274 199.269 94.1123 199.327 94.2044 199.371C94.2965 199.415 94.3862 199.448 94.4735 199.473C94.5656 199.492 94.648 199.504 94.7207 199.509C94.7935 199.514 94.8468 199.516 94.8807 199.516H95.4116ZM91.0044 203.72L92.2116 202.498L93.448 203.735L92.2262 204.956L91.0044 203.72ZM103.158 199.516V201.109H101.994C101.567 201.109 101.184 201.051 100.845 200.935C100.505 200.813 100.227 200.636 100.009 200.404C99.7467 200.632 99.4267 200.806 99.0485 200.927C98.6752 201.048 98.2509 201.109 97.7758 201.109H95.1503V199.516H97.7758C98.0958 199.516 98.3503 199.485 98.5394 199.422C98.7334 199.359 98.8788 199.281 98.9758 199.189C99.0728 199.092 99.1358 198.988 99.1649 198.876C99.194 198.76 99.2085 198.648 99.2085 198.542V196.076H100.794V198.491C100.794 198.656 100.818 198.796 100.867 198.913C100.92 199.024 100.985 199.119 101.063 199.196C101.141 199.269 101.225 199.327 101.318 199.371C101.41 199.415 101.499 199.448 101.587 199.473C101.679 199.492 101.761 199.504 101.834 199.509C101.907 199.514 101.96 199.516 101.994 199.516H103.158ZM99.9794 205L98.8303 203.836L99.9649 202.658L101.143 203.836L99.9794 205ZM97.2085 204.985L96.0594 203.822L97.194 202.644L98.3722 203.822L97.2085 204.985ZM108.302 194.091L107.153 192.927L108.287 191.749L109.465 192.927L108.302 194.091ZM105.378 194.076L104.229 192.913L105.356 191.735L106.535 192.913L105.378 194.076ZM110.876 199.516V201.109H109.713C109.286 201.109 108.903 201.051 108.564 200.935C108.224 200.813 107.945 200.636 107.727 200.404C107.465 200.632 107.145 200.806 106.767 200.927C106.394 201.048 105.97 201.109 105.495 201.109H102.869V199.516H105.495C105.815 199.516 106.069 199.485 106.258 199.422C106.452 199.359 106.598 199.281 106.695 199.189C106.792 199.092 106.855 198.988 106.884 198.876C106.913 198.76 106.927 198.648 106.927 198.542V196.076H108.513V198.491C108.513 198.656 108.537 198.796 108.585 198.913C108.639 199.024 108.704 199.119 108.782 199.196C108.859 199.269 108.944 199.327 109.036 199.371C109.128 199.415 109.218 199.448 109.305 199.473C109.398 199.492 109.48 199.504 109.553 199.509C109.625 199.514 109.679 199.516 109.713 199.516H110.876ZM110.508 199.516H111.424C111.735 199.516 111.984 199.49 112.173 199.436C112.367 199.383 112.518 199.305 112.624 199.204C112.731 199.097 112.801 198.968 112.835 198.818C112.874 198.668 112.893 198.498 112.893 198.309V196.084H114.486V198.273C114.486 198.704 114.588 199.019 114.791 199.218C115 199.412 115.33 199.512 115.781 199.516C115.858 199.512 115.955 199.497 116.071 199.473C116.193 199.444 116.307 199.388 116.413 199.305C116.525 199.218 116.619 199.097 116.697 198.942C116.775 198.782 116.813 198.571 116.813 198.309V196.084H118.399V198.273C118.399 198.709 118.503 199.027 118.711 199.225C118.92 199.419 119.255 199.516 119.715 199.516C119.846 199.516 119.975 199.497 120.101 199.458C120.227 199.415 120.341 199.347 120.442 199.255C120.544 199.162 120.627 199.044 120.69 198.898C120.758 198.748 120.796 198.564 120.806 198.345V196.084H122.399V198.345C122.408 198.758 122.532 199.056 122.77 199.24C123.007 199.424 123.368 199.516 123.853 199.516H124.61V201.109H123.853C123.359 201.109 122.922 201.048 122.544 200.927C122.171 200.801 121.856 200.612 121.599 200.36C121.366 200.612 121.082 200.801 120.748 200.927C120.418 201.048 120.074 201.109 119.715 201.109C119.259 201.109 118.859 201.048 118.515 200.927C118.171 200.801 117.868 200.615 117.606 200.367C117.359 200.6 117.075 200.782 116.755 200.913C116.44 201.039 116.125 201.104 115.81 201.109H115.759C115.318 201.109 114.927 201.046 114.588 200.92C114.248 200.789 113.955 200.615 113.708 200.396C113.431 200.634 113.107 200.813 112.733 200.935C112.36 201.051 111.924 201.109 111.424 201.109H110.508V199.516ZM117.126 193.073L115.962 194.251L114.799 193.087L115.962 191.909L117.126 193.073ZM120.246 193.044L119.097 194.207L117.897 193.058L119.075 191.88L120.246 193.044ZM118.639 190.993L117.548 192.084L116.471 191.007L117.562 189.916L118.639 190.993ZM129.759 195.051C129.769 195.08 129.788 195.16 129.817 195.291C129.847 195.417 129.88 195.575 129.919 195.764C129.963 195.953 130.004 196.161 130.043 196.389C130.087 196.617 130.125 196.847 130.159 197.08C130.198 197.308 130.23 197.531 130.254 197.749C130.278 197.962 130.29 198.149 130.29 198.309C130.29 198.789 130.21 199.206 130.05 199.56C129.89 199.914 129.682 200.205 129.425 200.433C129.173 200.661 128.887 200.83 128.567 200.942C128.247 201.053 127.927 201.109 127.607 201.109H124.37V199.516H127.657C127.72 199.516 127.813 199.507 127.934 199.487C128.06 199.468 128.184 199.419 128.305 199.342C128.426 199.259 128.53 199.138 128.617 198.978C128.71 198.818 128.756 198.595 128.756 198.309C128.756 198.202 128.746 198.069 128.727 197.909C128.707 197.749 128.683 197.577 128.654 197.393C128.625 197.208 128.591 197.019 128.552 196.825C128.513 196.632 128.474 196.45 128.436 196.28C128.402 196.11 128.368 195.958 128.334 195.822C128.3 195.686 128.273 195.582 128.254 195.509L129.759 195.051ZM124.959 203.502L126.123 202.338L127.287 203.516L126.123 204.68L124.959 203.502ZM127.992 203.516L129.17 202.353L130.334 203.531L129.17 204.695L127.992 203.516ZM126.545 205.553L127.621 204.476L128.712 205.567L127.636 206.644L126.545 205.553Z" fill="#37464E"/>
<path d="M167.5 134L137.317 68H70.087L34.5 134H167.5Z" fill="url(#paint0_linear_96_11065)"/>
<path d="M103.564 33.5198C103.288 33.5198 103.064 33.4417 103.064 33.3452V0.17463C103.064 0.0781237 103.288 0 103.564 0C103.841 0 104.064 0.0781237 104.064 0.17463V33.3452C104.064 33.4417 103.841 33.5198 103.564 33.5198Z" fill="#845752"/>
<path d="M109.219 35.4996V41.4596C109.219 42.7696 108.169 43.8296 106.859 43.8296H100.38C99.0695 43.8296 98.0195 42.7696 98.0195 41.4596V35.4996C98.0195 34.1896 99.0695 33.1396 100.38 33.1396H106.859C107.749 33.1396 108.52 33.6296 108.93 34.3496C109.11 34.6996 109.219 35.0896 109.219 35.4996Z" fill="#6B4441"/>
<path d="M109.219 35.4996V41.4596C109.219 42.7696 108.169 43.8296 106.859 43.8296H100.38C99.0695 43.8296 98.0195 42.7696 98.0195 41.4596V38.5996C99.1195 38.9996 100.429 39.2196 101.789 38.8996C105.359 38.0496 106.88 35.1696 106.88 35.1696L106.2 38.8996C106.2 38.8996 108.239 37.0696 108.919 34.3496C109.109 34.6996 109.219 35.0896 109.219 35.4996Z" fill="#442A29"/>
<path d="M138.24 68.8197H69.0098C69.0098 68.5497 69.0197 68.2597 69.0297 67.9897C69.1697 64.4397 70.1497 61.0597 71.8397 57.9797C75.7297 50.8597 83.3498 45.2997 92.7498 42.8397C93.3398 42.6897 93.9297 42.5497 94.5397 42.4197C97.4297 41.7997 100.49 41.4697 103.63 41.4697C120.51 41.4697 134.55 51.0097 137.62 63.6397C138.02 65.3097 138.24 67.0397 138.24 68.8197Z" fill="#FCD535"/>
<path d="M138.24 68.82H137.8C136.01 65.66 132.32 61.05 124.71 55.2C115.17 47.88 101.6 44.41 92.75 42.83C93.34 42.68 93.93 42.54 94.54 42.41C97.43 41.79 100.49 41.46 103.63 41.46C120.51 41.46 134.55 51 137.62 63.63C138.02 65.31 138.24 67.04 138.24 68.82Z" fill="#FCD535"/>
<path d="M138.24 68.8202H129.34C128.29 67.0302 127.04 64.3902 124.37 61.6502C117.41 54.5202 105.36 51.4702 105.36 51.4702L110.45 59.9502C110.45 59.9502 103.33 54.1802 90.77 53.1602C81.66 52.4302 74.87 55.9702 71.83 57.9702C75.97 50.4002 84.31 44.6002 94.52 42.4102C118.56 45.7402 131.24 55.8802 137.6 63.6202C138.02 65.3102 138.24 67.0402 138.24 68.8202Z" fill="#F5C500"/>
<path d="M128.97 68.8194H69C69 68.5494 69.01 68.2594 69.02 67.9894C70.55 67.1794 72.79 66.6294 77.19 65.7194C82.11 64.7094 85.34 64.6994 85.34 64.6994C85.34 64.6994 78.38 64.1894 84.49 61.8194C90.6 59.4494 100.28 61.3094 99.25 62.6694C98.23 64.0294 93.82 64.3694 93.82 64.3694C93.82 64.3694 116.9 64.3694 128.1 67.4194C129.67 67.8494 129.84 68.3194 128.97 68.8194Z" fill="#F5C500"/>
<path d="M138.24 68.8193C138.24 69.8593 125.02 70.7093 107.94 70.8393C106.53 70.8493 105.08 70.8593 103.63 70.8593C84.5095 70.8593 69.0195 69.9393 69.0195 68.8193C69.0195 68.2693 72.6895 67.7693 78.6695 67.4093C84.9695 67.0293 93.8295 66.7793 103.63 66.7793C122.74 66.7793 138.24 67.6993 138.24 68.8193Z" fill="white"/>
<path d="M138.24 68.8193C138.24 69.8593 125.02 70.7093 107.94 70.8393C113.77 70.3993 119.79 69.7693 122.08 68.9493C125.97 67.5493 93.1202 67.4093 78.6602 67.4093C84.9602 67.0293 93.8202 66.7793 103.62 66.7793C122.74 66.7793 138.24 67.6993 138.24 68.8193Z" fill="#FFF0C1"/>
<defs>
<linearGradient id="paint0_linear_96_11065" x1="101" y1="45" x2="99.5" y2="131" gradientUnits="userSpaceOnUse">
<stop stop-color="#FCD535"/>
<stop offset="1" stop-color="#FCD535" stop-opacity="0"/>
</linearGradient>
</defs>
</svg>
