<svg width="230" height="207" viewBox="0 0 230 207" fill="none" xmlns="http://www.w3.org/2000/svg">
<rect width="230" height="207" rx="12" fill="#FCD535" fill-opacity="0.2"/>
<path d="M31.3587 111.095C30.9472 111.095 30.6057 111.049 30.3342 110.955C30.0669 110.858 29.8505 110.69 29.6851 110.453C29.5663 110.601 29.439 110.72 29.3033 110.809C29.1675 110.898 29.0317 110.966 28.896 111.013C28.7645 111.064 28.6372 111.095 28.5142 111.108C28.3954 111.125 28.2914 111.134 28.2023 111.134C27.9648 111.134 27.6826 111.072 27.356 110.949C27.0293 110.826 26.6793 110.675 26.306 110.497C25.9326 110.315 25.5487 110.12 25.1542 109.912C24.7596 109.7 24.3757 109.505 24.0023 109.326L24.0151 115.2H22.6723L22.666 108.684L24.0596 107.837L25.1669 108.385C25.2136 108.138 25.2687 107.895 25.3323 107.653C25.396 107.407 25.4745 107.173 25.5678 106.953C25.6611 106.732 25.7714 106.526 25.8987 106.335C26.026 106.145 26.1745 105.979 26.3442 105.839C26.5181 105.699 26.7196 105.591 26.9487 105.515C27.1608 105.447 27.4005 105.413 27.6678 105.413H27.7187C28.1302 105.413 28.4929 105.493 28.8069 105.655C29.1251 105.812 29.3902 106.026 29.6023 106.297C29.8187 106.565 29.982 106.874 30.0923 107.226C30.2026 107.578 30.2578 107.948 30.2578 108.334C30.2578 108.406 30.2557 108.476 30.2514 108.544C30.2514 108.612 30.2493 108.677 30.2451 108.741C30.2493 108.94 30.2981 109.104 30.3914 109.231C30.4848 109.354 30.5908 109.452 30.7096 109.524C30.8326 109.592 30.9557 109.638 31.0787 109.664C31.2017 109.689 31.2951 109.702 31.3587 109.702H31.626V111.095H31.3587ZM28.2023 109.746C28.2448 109.746 28.3105 109.742 28.3996 109.734C28.4887 109.721 28.5778 109.672 28.6669 109.587C28.7602 109.502 28.8408 109.365 28.9087 109.174C28.9766 108.978 29.0105 108.698 29.0105 108.334C29.0105 108.291 29.0042 108.223 28.9914 108.13C28.9787 108.037 28.9554 107.935 28.9214 107.825C28.8917 107.71 28.8472 107.593 28.7878 107.475C28.7284 107.352 28.652 107.241 28.5587 107.144C28.4654 107.046 28.3508 106.965 28.2151 106.902C28.0836 106.838 27.9266 106.806 27.7442 106.806C27.5957 106.806 27.4557 106.83 27.3242 106.876C27.1969 106.919 27.076 107.018 26.9614 107.175C26.8511 107.332 26.7493 107.559 26.656 107.856C26.5626 108.153 26.4757 108.552 26.3951 109.053C26.569 109.146 26.7408 109.235 26.9105 109.32C27.0845 109.405 27.2499 109.479 27.4069 109.543C27.5639 109.606 27.7102 109.657 27.846 109.695C27.9817 109.729 28.1005 109.746 28.2023 109.746ZM38.3918 109.702V111.095H37.3736C37.0003 111.095 36.6652 111.045 36.3682 110.943C36.0712 110.837 35.8273 110.682 35.6364 110.478C35.4073 110.678 35.1273 110.83 34.7964 110.936C34.4697 111.042 34.0985 111.095 33.6827 111.095H31.3855V109.702H33.6827C33.9627 109.702 34.1855 109.674 34.3509 109.619C34.5206 109.564 34.6479 109.496 34.7327 109.415C34.8176 109.331 34.8727 109.239 34.8982 109.142C34.9236 109.04 34.9364 108.942 34.9364 108.849V106.692H36.3236V108.805C36.3236 108.949 36.3448 109.072 36.3873 109.174C36.4339 109.271 36.4912 109.354 36.5591 109.422C36.627 109.485 36.7012 109.536 36.7818 109.575C36.8624 109.613 36.9409 109.642 37.0173 109.664C37.0979 109.681 37.17 109.691 37.2336 109.695C37.2973 109.7 37.3439 109.702 37.3736 109.702H38.3918ZM35.6109 114.5L34.6055 113.482L35.5982 112.451L36.6291 113.482L35.6109 114.5ZM33.1864 114.487L32.1809 113.469L33.1736 112.438L34.2045 113.469L33.1864 114.487ZM42.893 104.955L41.8875 103.936L42.8803 102.905L43.9112 103.936L42.893 104.955ZM40.3348 104.942L39.3294 103.924L40.3157 102.893L41.3466 103.924L40.3348 104.942ZM45.1457 109.702V111.095H44.1275C43.7542 111.095 43.4191 111.045 43.1221 110.943C42.8251 110.837 42.5812 110.682 42.3903 110.478C42.1612 110.678 41.8812 110.83 41.5503 110.936C41.2236 111.042 40.8524 111.095 40.4366 111.095H38.1394V109.702H40.4366C40.7166 109.702 40.9394 109.674 41.1048 109.619C41.2745 109.564 41.4018 109.496 41.4866 109.415C41.5715 109.331 41.6266 109.239 41.6521 109.142C41.6775 109.04 41.6903 108.942 41.6903 108.849V106.692H43.0775V108.805C43.0775 108.949 43.0988 109.072 43.1412 109.174C43.1878 109.271 43.2451 109.354 43.313 109.422C43.3809 109.485 43.4551 109.536 43.5357 109.575C43.6163 109.613 43.6948 109.642 43.7712 109.664C43.8518 109.681 43.9239 109.691 43.9875 109.695C44.0512 109.7 44.0978 109.702 44.1275 109.702H45.1457ZM44.836 109.702H45.6378C45.9093 109.702 46.1278 109.678 46.2933 109.632C46.463 109.585 46.5945 109.517 46.6878 109.428C46.7811 109.335 46.8427 109.222 46.8724 109.091C46.9063 108.959 46.9233 108.811 46.9233 108.645V106.698H48.3169V108.614C48.3169 108.991 48.406 109.267 48.5842 109.441C48.7666 109.611 49.0551 109.698 49.4496 109.702C49.5175 109.698 49.6024 109.685 49.7042 109.664C49.8102 109.638 49.9099 109.589 50.0033 109.517C50.1008 109.441 50.1836 109.335 50.2514 109.199C50.3193 109.059 50.3533 108.875 50.3533 108.645V106.698H51.7405V108.614C51.7405 108.995 51.8318 109.273 52.0142 109.447C52.1966 109.617 52.4893 109.702 52.8924 109.702C53.0069 109.702 53.1193 109.685 53.2296 109.651C53.3399 109.613 53.4396 109.553 53.5287 109.473C53.6178 109.392 53.6899 109.288 53.7451 109.161C53.8045 109.029 53.8384 108.868 53.8469 108.677V106.698H55.2405V108.677C55.249 109.038 55.3572 109.299 55.5651 109.46C55.773 109.621 56.089 109.702 56.5133 109.702H57.1751V111.095H56.5133C56.0805 111.095 55.6987 111.042 55.3678 110.936C55.0411 110.826 54.7654 110.661 54.5405 110.44C54.3369 110.661 54.0887 110.826 53.796 110.936C53.5075 111.042 53.2063 111.095 52.8924 111.095C52.4936 111.095 52.1436 111.042 51.8424 110.936C51.5411 110.826 51.276 110.663 51.0469 110.446C50.8305 110.65 50.5824 110.809 50.3024 110.924C50.0266 111.034 49.7508 111.091 49.4751 111.095H49.4305C49.0445 111.095 48.703 111.04 48.406 110.93C48.109 110.815 47.8524 110.663 47.636 110.472C47.3942 110.68 47.1099 110.837 46.7833 110.943C46.4566 111.045 46.0748 111.095 45.6378 111.095H44.836V109.702ZM63.0174 104.127C63.3652 104.59 63.6983 105.029 64.0164 105.445C64.148 105.623 64.2837 105.803 64.4237 105.985C64.5637 106.168 64.6974 106.344 64.8246 106.514C64.9561 106.679 65.077 106.834 65.1874 106.978C65.2977 107.118 65.3889 107.235 65.461 107.328C65.5967 107.502 65.7049 107.695 65.7855 107.907C65.8704 108.115 65.9298 108.327 65.9637 108.544C65.9807 108.684 65.9892 108.822 65.9892 108.957C65.9892 109.038 65.9828 109.152 65.9701 109.301C65.9616 109.445 65.9277 109.608 65.8683 109.791C65.7877 110.037 65.6689 110.262 65.5119 110.465C65.3549 110.669 65.1619 110.845 64.9328 110.994C64.708 111.142 64.4492 111.257 64.1564 111.337C63.8637 111.418 63.5434 111.458 63.1955 111.458C62.8986 111.458 62.5889 111.426 62.2664 111.363C61.9483 111.303 61.6237 111.191 61.2928 111.025C61.208 110.992 61.1274 110.955 61.051 110.917C60.9831 110.888 60.9131 110.856 60.841 110.822C60.7731 110.788 60.7158 110.758 60.6692 110.733C59.8674 110.975 58.8661 111.095 57.6655 111.095H56.9528V109.702H57.6655C57.9074 109.702 58.1322 109.7 58.3401 109.695C58.5522 109.691 58.7622 109.678 58.9701 109.657C58.7155 109.398 58.5161 109.114 58.3719 108.805C58.2277 108.491 58.1555 108.138 58.1555 107.748C58.1555 107.413 58.2192 107.105 58.3464 106.825C58.478 106.545 58.6561 106.306 58.881 106.106C59.1058 105.907 59.371 105.752 59.6764 105.642C59.9819 105.527 60.3107 105.47 60.6628 105.47C60.9258 105.47 61.1698 105.506 61.3946 105.578C61.6195 105.65 61.8231 105.748 62.0055 105.871C62.1922 105.994 62.3555 106.136 62.4955 106.297C62.6355 106.458 62.7522 106.628 62.8455 106.806C62.9431 106.98 63.0152 107.158 63.0619 107.341C63.1128 107.519 63.1383 107.689 63.1383 107.85C63.1383 108.274 63.0555 108.658 62.8901 109.002C62.7246 109.341 62.4955 109.645 62.2028 109.912C62.3555 109.967 62.5189 110.014 62.6928 110.052C62.8667 110.09 63.0343 110.109 63.1955 110.109C63.3355 110.109 63.4819 110.098 63.6346 110.077C63.7874 110.052 63.9316 110.009 64.0674 109.95C64.2031 109.886 64.324 109.802 64.4301 109.695C64.5404 109.589 64.6231 109.454 64.6783 109.288C64.6995 109.22 64.7101 109.148 64.7101 109.072C64.7101 108.923 64.657 108.73 64.551 108.493C64.4492 108.255 64.2667 107.954 64.0037 107.589C63.7449 107.22 63.4352 106.815 63.0746 106.374C62.714 105.932 62.3301 105.459 61.9228 104.955L63.0174 104.127ZM59.4664 107.748C59.4664 108.088 59.5725 108.385 59.7846 108.639C59.9967 108.894 60.3149 109.133 60.7392 109.358C60.8834 109.29 61.0213 109.205 61.1528 109.104C61.2843 109.002 61.401 108.887 61.5028 108.76C61.6046 108.628 61.6852 108.488 61.7446 108.34C61.8083 108.187 61.8401 108.03 61.8401 107.869C61.8401 107.674 61.7977 107.504 61.7128 107.36C61.6322 107.212 61.5304 107.088 61.4074 106.991C61.2886 106.893 61.1613 106.821 61.0255 106.775C60.8898 106.728 60.7689 106.705 60.6628 106.705C60.5058 106.705 60.3552 106.734 60.211 106.794C60.0667 106.849 59.9395 106.925 59.8292 107.023C59.7189 107.116 59.6298 107.226 59.5619 107.354C59.4983 107.477 59.4664 107.608 59.4664 107.748ZM75.0543 111.095C74.6131 111.095 74.2355 111.068 73.9215 111.013C73.6076 110.958 73.3425 110.875 73.1261 110.765C72.914 110.654 72.7421 110.516 72.6106 110.351C72.4834 110.181 72.3858 109.984 72.3179 109.759C72.25 109.53 72.2055 109.273 72.1843 108.989C72.1631 108.705 72.1525 108.389 72.1525 108.041V101.919H73.5461V108.041C73.5461 108.397 73.5567 108.686 73.5779 108.906C73.6034 109.123 73.6649 109.29 73.7625 109.409C73.8643 109.528 74.0149 109.606 74.2143 109.645C74.4179 109.683 74.6979 109.702 75.0543 109.702V111.095ZM82.3874 111.095C82.0565 111.095 81.7531 111.038 81.4774 110.924C81.2058 110.809 80.9619 110.675 80.7455 110.523C80.5037 110.858 80.2513 111.087 79.9883 111.21C79.7252 111.337 79.458 111.401 79.1865 111.401C78.9786 111.401 78.7792 111.38 78.5883 111.337C78.3974 111.299 78.2022 111.24 78.0028 111.159C77.8077 111.083 77.6019 110.989 77.3855 110.879C77.1692 110.769 76.9316 110.644 76.6728 110.504C76.4904 110.707 76.2889 110.858 76.0683 110.955C75.8477 111.049 75.6186 111.095 75.381 111.095H74.8019V109.702H75.3301C75.4404 109.702 75.5358 109.666 75.6165 109.594C75.6971 109.522 75.7692 109.426 75.8328 109.307C75.8965 109.184 75.9537 109.042 76.0046 108.881C76.0598 108.715 76.1128 108.539 76.1637 108.353C76.2189 108.153 76.2804 107.95 76.3483 107.742C76.4162 107.534 76.4946 107.332 76.5837 107.137C76.6771 106.938 76.7852 106.751 76.9083 106.577C77.0355 106.403 77.184 106.251 77.3537 106.119C77.5234 105.988 77.7186 105.884 77.9392 105.807C78.1598 105.731 78.4143 105.693 78.7028 105.693C79.1355 105.693 79.511 105.771 79.8292 105.928C80.1474 106.085 80.4125 106.297 80.6246 106.565C80.8368 106.832 80.9937 107.142 81.0955 107.494C81.2016 107.846 81.2546 108.215 81.2546 108.601C81.2546 108.86 81.3034 109.063 81.401 109.212C81.5028 109.356 81.6174 109.466 81.7446 109.543C81.8762 109.615 82.0034 109.659 82.1265 109.676C82.2537 109.693 82.3407 109.702 82.3874 109.702H82.5719V111.095H82.3874ZM79.1865 110.007C79.2162 110.007 79.2543 110.007 79.301 110.007C79.3519 110.003 79.4071 109.988 79.4665 109.963C79.5258 109.937 79.5852 109.897 79.6446 109.842C79.7083 109.787 79.7655 109.708 79.8165 109.606C79.8674 109.5 79.9077 109.367 79.9374 109.205C79.9713 109.044 79.9883 108.843 79.9883 108.601C79.9883 108.558 79.9819 108.491 79.9692 108.397C79.9565 108.304 79.9331 108.202 79.8992 108.092C79.8652 107.977 79.8186 107.861 79.7592 107.742C79.6998 107.623 79.6213 107.515 79.5237 107.417C79.4304 107.32 79.3158 107.239 79.1801 107.175C79.0443 107.112 78.8852 107.08 78.7028 107.08C78.5331 107.08 78.3846 107.114 78.2574 107.182C78.1301 107.25 78.0198 107.343 77.9265 107.462C77.8331 107.576 77.7525 107.708 77.6846 107.856C77.621 108.005 77.5616 108.16 77.5065 108.321C77.4555 108.482 77.4089 108.643 77.3665 108.805C77.324 108.966 77.2795 109.114 77.2328 109.25C77.3983 109.339 77.5701 109.43 77.7483 109.524C77.9307 109.613 78.1068 109.695 78.2765 109.772C78.4504 109.844 78.6158 109.901 78.7728 109.944C78.9171 109.986 79.0443 110.007 79.1546 110.007H79.1865ZM87.125 111.083C86.7305 111.083 86.3784 111.03 86.0687 110.924C85.7632 110.813 85.5002 110.652 85.2796 110.44C85.0505 110.661 84.7896 110.826 84.4969 110.936C84.2084 111.042 83.9178 111.095 83.625 111.095H82.2187V109.702H83.625C83.6802 109.702 83.7608 109.693 83.8669 109.676C83.9772 109.655 84.0853 109.608 84.1914 109.536C84.2975 109.464 84.3887 109.358 84.465 109.218C84.5456 109.074 84.586 108.877 84.586 108.626V106.698H85.9796V108.601C85.9796 108.983 86.0687 109.261 86.2469 109.435C86.425 109.608 86.7178 109.695 87.125 109.695C87.1802 109.695 87.2608 109.685 87.3669 109.664C87.4772 109.642 87.5853 109.596 87.6914 109.524C87.7975 109.447 87.8887 109.337 87.965 109.193C88.0456 109.048 88.086 108.851 88.086 108.601V106.698H89.4732V108.601C89.4732 108.983 89.5644 109.263 89.7469 109.441C89.9293 109.619 90.2263 109.708 90.6378 109.708C90.7014 109.708 90.7863 109.695 90.8923 109.67C90.9984 109.645 91.1023 109.594 91.2041 109.517C91.306 109.441 91.395 109.331 91.4714 109.186C91.5478 109.038 91.586 108.843 91.586 108.601C91.586 108.508 91.5775 108.393 91.5605 108.257C91.5435 108.117 91.5223 107.969 91.4969 107.812C91.4714 107.655 91.4417 107.496 91.4078 107.335C91.3781 107.169 91.3463 107.014 91.3123 106.87C91.2826 106.722 91.2529 106.59 91.2232 106.475C91.1935 106.361 91.1702 106.274 91.1532 106.215L92.4705 105.795C92.479 105.82 92.496 105.888 92.5214 105.998C92.5511 106.108 92.5829 106.244 92.6169 106.405C92.655 106.567 92.6932 106.745 92.7314 106.94C92.7738 107.135 92.812 107.332 92.846 107.532C92.8799 107.731 92.9075 107.924 92.9287 108.111C92.9499 108.298 92.9605 108.461 92.9605 108.601C92.9605 109.021 92.8905 109.386 92.7505 109.695C92.6147 110.005 92.4366 110.264 92.216 110.472C91.9996 110.68 91.7514 110.835 91.4714 110.936C91.1956 111.038 90.9178 111.091 90.6378 111.095C90.2432 111.095 89.889 111.038 89.575 110.924C89.2611 110.809 88.9917 110.646 88.7669 110.434C88.5378 110.654 88.279 110.818 87.9905 110.924C87.7063 111.03 87.4178 111.083 87.125 111.083ZM88.5569 103.885L87.5387 104.916L86.5205 103.898L87.5387 102.867L88.5569 103.885ZM91.2869 103.86L90.2814 104.878L89.2314 103.873L90.2623 102.842L91.2869 103.86ZM89.8805 102.065L88.926 103.02L87.9841 102.078L88.9387 101.124L89.8805 102.065ZM103.746 113.202C104.154 113.202 104.506 113.168 104.803 113.1C105.1 113.032 105.344 112.924 105.535 112.775C105.725 112.627 105.865 112.434 105.955 112.196C106.048 111.959 106.095 111.67 106.095 111.331C105.708 111.229 105.327 111.125 104.949 111.019C104.788 110.977 104.618 110.932 104.44 110.885C104.266 110.839 104.09 110.792 103.912 110.745C103.738 110.695 103.566 110.648 103.396 110.605C103.231 110.563 103.076 110.523 102.932 110.485C102.766 110.073 102.671 109.664 102.645 109.256C102.637 109.159 102.633 109.061 102.633 108.964C102.633 108.662 102.673 108.348 102.754 108.022C102.838 107.695 102.985 107.373 103.193 107.055C103.401 106.736 103.659 106.461 103.969 106.227C104.279 105.994 104.637 105.812 105.045 105.68C105.452 105.544 105.902 105.476 106.394 105.476C106.597 105.476 106.801 105.491 107.005 105.521C107.208 105.551 107.427 105.595 107.66 105.655L107.31 106.997C107.132 106.946 106.966 106.91 106.814 106.889C106.665 106.864 106.515 106.851 106.362 106.851C106.014 106.851 105.689 106.908 105.388 107.023C105.091 107.133 104.835 107.294 104.618 107.506C104.406 107.714 104.247 107.967 104.141 108.264C104.056 108.493 104.014 108.741 104.014 109.008C104.014 109.093 104.018 109.178 104.026 109.263C104.205 109.309 104.376 109.356 104.542 109.403C104.712 109.445 104.885 109.49 105.064 109.536C105.246 109.583 105.439 109.632 105.643 109.683C105.846 109.734 106.073 109.789 106.324 109.848C106.71 109.946 106.988 110.107 107.157 110.332C107.327 110.557 107.412 110.839 107.412 111.178C107.412 111.751 107.346 112.252 107.215 112.68C107.083 113.108 106.871 113.465 106.578 113.749C106.285 114.033 105.906 114.248 105.439 114.392C104.977 114.536 104.412 114.608 103.746 114.608H102.404C102.064 114.608 101.738 114.568 101.424 114.487C101.114 114.411 100.823 114.298 100.552 114.15C100.28 114.006 100.03 113.828 99.8009 113.615C99.5761 113.408 99.3767 113.172 99.2027 112.909C98.7912 112.243 98.5855 111.465 98.5855 110.574C98.5855 110.022 98.6682 109.445 98.8336 108.843C98.9991 108.24 99.2515 107.587 99.5909 106.883L100.825 107.481C100.541 108.083 100.329 108.635 100.189 109.135C100.049 109.632 99.9791 110.101 99.9791 110.542C99.9791 111.174 100.119 111.713 100.399 112.158C100.603 112.498 100.881 112.756 101.233 112.935C101.585 113.113 101.975 113.202 102.404 113.202H103.746ZM109.667 113.119C110.324 113.119 110.863 113.072 111.283 112.979C111.703 112.886 112.034 112.739 112.276 112.54C112.374 112.459 112.458 112.372 112.531 112.279C112.607 112.19 112.668 112.086 112.715 111.967C112.766 111.853 112.804 111.723 112.83 111.579C112.859 111.439 112.876 111.278 112.881 111.095H111.805C111.495 111.095 111.181 111.053 110.863 110.968C110.549 110.879 110.263 110.733 110.004 110.529C109.75 110.325 109.54 110.056 109.374 109.721C109.213 109.386 109.132 108.972 109.132 108.48C109.132 108.192 109.156 107.933 109.202 107.704C109.253 107.475 109.317 107.271 109.393 107.093C109.47 106.91 109.554 106.753 109.648 106.622C109.741 106.49 109.832 106.376 109.921 106.278C110.163 106.036 110.439 105.85 110.749 105.718C111.063 105.582 111.4 105.515 111.761 105.515C112.074 105.515 112.367 105.563 112.639 105.661C112.914 105.758 113.161 105.905 113.377 106.1C113.67 106.376 113.89 106.724 114.039 107.144C114.191 107.564 114.268 108.066 114.268 108.652V109.702H115.432V111.095H114.268C114.259 111.681 114.162 112.175 113.975 112.578C113.793 112.981 113.517 113.331 113.148 113.628C112.957 113.777 112.747 113.906 112.518 114.016C112.289 114.131 112.032 114.224 111.748 114.296C111.464 114.368 111.15 114.422 110.806 114.455C110.467 114.494 110.087 114.513 109.667 114.513V113.119ZM111.761 106.908C111.37 106.908 111.067 107.044 110.851 107.315C110.634 107.583 110.526 107.971 110.526 108.48C110.526 108.735 110.564 108.94 110.641 109.097C110.717 109.254 110.829 109.382 110.978 109.479C111.05 109.526 111.126 109.564 111.207 109.594C111.292 109.619 111.372 109.64 111.449 109.657C111.525 109.674 111.593 109.687 111.652 109.695C111.716 109.7 111.767 109.702 111.805 109.702H112.881V108.652C112.881 108.355 112.859 108.107 112.817 107.907C112.774 107.704 112.719 107.538 112.651 107.411C112.584 107.284 112.507 107.186 112.422 107.118C112.342 107.046 112.259 106.995 112.174 106.965C112.094 106.936 112.015 106.919 111.939 106.915C111.867 106.91 111.807 106.908 111.761 106.908ZM123.34 111.095H123.149C122.775 111.095 122.451 111.059 122.175 110.987C121.899 110.911 121.651 110.807 121.43 110.675C121.21 110.54 121.006 110.381 120.82 110.198C120.633 110.012 120.442 109.808 120.247 109.587C120.187 109.702 120.111 109.816 120.018 109.931C119.929 110.045 119.829 110.154 119.719 110.255C119.608 110.357 119.487 110.453 119.356 110.542C119.224 110.627 119.089 110.701 118.949 110.765C118.694 110.875 118.41 110.958 118.096 111.013C117.782 111.068 117.457 111.095 117.122 111.095H115.156V109.702H117.211C117.436 109.702 117.653 109.685 117.86 109.651C118.068 109.613 118.257 109.564 118.427 109.505C118.596 109.441 118.743 109.367 118.866 109.282C118.993 109.193 119.089 109.097 119.152 108.995C119.173 108.949 119.19 108.896 119.203 108.836C119.216 108.773 119.222 108.711 119.222 108.652C119.222 108.525 119.178 108.365 119.089 108.175C119 107.979 118.881 107.765 118.732 107.532C118.584 107.298 118.414 107.055 118.223 106.8C118.032 106.541 117.835 106.287 117.631 106.036C117.432 105.782 117.233 105.54 117.033 105.311C116.838 105.078 116.66 104.87 116.499 104.687L116.747 103.491L122.474 100.85L123.047 102.129L118.032 104.439L120.489 107.723C120.73 108.045 120.951 108.329 121.15 108.575C121.35 108.822 121.549 109.029 121.749 109.199C121.952 109.365 122.164 109.49 122.385 109.575C122.606 109.659 122.86 109.702 123.149 109.702H123.34V111.095ZM116.95 101.556L121.736 99.4818L122.029 100.118L116.874 102.365L116.95 101.556ZM130.918 109.186C130.965 109.318 131.035 109.418 131.128 109.485C131.222 109.558 131.319 109.611 131.421 109.645C131.523 109.674 131.618 109.691 131.707 109.695C131.796 109.7 131.86 109.702 131.898 109.702H133.114V111.095H131.898C131.572 111.095 131.268 111.049 130.988 110.955C130.708 110.858 130.458 110.718 130.237 110.535V110.529C130.008 110.342 129.826 110.111 129.69 109.835C129.66 109.848 129.629 109.863 129.595 109.88C129.153 110.092 128.68 110.289 128.176 110.472C127.671 110.65 127.142 110.798 126.591 110.917C126.044 111.036 125.496 111.095 124.949 111.095H123.116V109.702H124.949C125.246 109.702 125.554 109.681 125.872 109.638C126.19 109.596 126.506 109.538 126.82 109.466C127.138 109.39 127.452 109.303 127.762 109.205C128.072 109.108 128.369 109.004 128.653 108.894C128.941 108.783 129.211 108.671 129.461 108.556C129.711 108.438 129.936 108.321 130.136 108.206L126.96 107.093C126.769 107.038 126.599 107.01 126.451 107.01C126.302 107.006 126.171 107.031 126.056 107.086C125.942 107.142 125.842 107.228 125.757 107.347C125.672 107.466 125.596 107.617 125.528 107.799L124.243 107.411C124.332 107.127 124.453 106.855 124.606 106.596C124.758 106.338 124.947 106.121 125.172 105.947C125.397 105.769 125.66 105.65 125.961 105.591C126.054 105.574 126.152 105.565 126.254 105.565C126.479 105.565 126.725 105.608 126.992 105.693C127.229 105.769 127.444 105.841 127.635 105.909C127.83 105.973 128.021 106.041 128.207 106.113C128.394 106.181 128.589 106.255 128.793 106.335C129.001 106.412 129.238 106.501 129.506 106.603C129.777 106.705 130.091 106.823 130.447 106.959C130.804 107.091 131.226 107.243 131.714 107.417L131.886 108.588C131.86 108.605 131.748 108.677 131.548 108.805C131.383 108.915 131.173 109.042 130.918 109.186ZM124.975 102.975L126.031 101.906L127.113 102.988L126.044 104.057L124.975 102.975ZM137.738 111.083C137.344 111.083 136.991 111.03 136.682 110.924C136.376 110.813 136.113 110.652 135.893 110.44C135.664 110.661 135.403 110.826 135.11 110.936C134.821 111.042 134.531 111.095 134.238 111.095H132.832V109.702H134.238C134.293 109.702 134.374 109.693 134.48 109.676C134.59 109.655 134.698 109.608 134.804 109.536C134.91 109.464 135.002 109.358 135.078 109.218C135.159 109.074 135.199 108.877 135.199 108.626V106.698H136.593V108.601C136.593 108.983 136.682 109.261 136.86 109.435C137.038 109.608 137.331 109.695 137.738 109.695C137.793 109.695 137.874 109.685 137.98 109.664C138.09 109.642 138.198 109.596 138.304 109.524C138.41 109.447 138.502 109.337 138.578 109.193C138.659 109.048 138.699 108.851 138.699 108.601V106.698H140.086V108.601C140.086 108.983 140.177 109.263 140.36 109.441C140.542 109.619 140.839 109.708 141.251 109.708C141.314 109.708 141.399 109.695 141.505 109.67C141.611 109.645 141.715 109.594 141.817 109.517C141.919 109.441 142.008 109.331 142.084 109.186C142.161 109.038 142.199 108.843 142.199 108.601C142.199 108.508 142.19 108.393 142.174 108.257C142.157 108.117 142.135 107.969 142.11 107.812C142.084 107.655 142.055 107.496 142.021 107.335C141.991 107.169 141.959 107.014 141.925 106.87C141.896 106.722 141.866 106.59 141.836 106.475C141.807 106.361 141.783 106.274 141.766 106.215L143.084 105.795C143.092 105.82 143.109 105.888 143.134 105.998C143.164 106.108 143.196 106.244 143.23 106.405C143.268 106.567 143.306 106.745 143.344 106.94C143.387 107.135 143.425 107.332 143.459 107.532C143.493 107.731 143.52 107.924 143.542 108.111C143.563 108.298 143.574 108.461 143.574 108.601C143.574 109.021 143.504 109.386 143.364 109.695C143.228 110.005 143.05 110.264 142.829 110.472C142.613 110.68 142.364 110.835 142.084 110.936C141.809 111.038 141.531 111.091 141.251 111.095C140.856 111.095 140.502 111.038 140.188 110.924C139.874 110.809 139.605 110.646 139.38 110.434C139.151 110.654 138.892 110.818 138.604 110.924C138.319 111.03 138.031 111.083 137.738 111.083ZM148.199 111.095C147.758 111.095 147.38 111.068 147.066 111.013C146.752 110.958 146.487 110.875 146.271 110.765C146.058 110.654 145.887 110.516 145.755 110.351C145.628 110.181 145.53 109.984 145.462 109.759C145.395 109.53 145.35 109.273 145.329 108.989C145.308 108.705 145.297 108.389 145.297 108.041V101.919H146.691V108.041C146.691 108.397 146.701 108.686 146.722 108.906C146.748 109.123 146.809 109.29 146.907 109.409C147.009 109.528 147.159 109.606 147.359 109.645C147.562 109.683 147.842 109.702 148.199 109.702V111.095ZM152.668 105.795C152.677 105.82 152.694 105.89 152.719 106.005C152.745 106.115 152.774 106.253 152.808 106.418C152.846 106.584 152.883 106.766 152.916 106.965C152.955 107.165 152.989 107.366 153.018 107.57C153.052 107.769 153.08 107.965 153.101 108.155C153.122 108.342 153.133 108.505 153.133 108.645C153.133 109.065 153.063 109.43 152.923 109.74C152.783 110.05 152.6 110.304 152.376 110.504C152.155 110.703 151.905 110.852 151.625 110.949C151.345 111.047 151.065 111.095 150.785 111.095H147.953V109.702H150.829C150.884 109.702 150.965 109.693 151.071 109.676C151.181 109.659 151.289 109.617 151.396 109.549C151.502 109.477 151.593 109.371 151.669 109.231C151.75 109.091 151.79 108.896 151.79 108.645C151.79 108.552 151.782 108.435 151.765 108.295C151.748 108.155 151.726 108.005 151.701 107.844C151.676 107.682 151.646 107.517 151.612 107.347C151.578 107.178 151.544 107.018 151.51 106.87C151.48 106.722 151.451 106.588 151.421 106.469C151.391 106.35 151.368 106.259 151.351 106.195L152.668 105.795ZM148.468 113.189L149.486 112.171L150.505 113.202L149.486 114.22L148.468 113.189ZM151.122 113.202L152.153 112.184L153.171 113.215L152.153 114.233L151.122 113.202ZM149.856 114.984L150.797 114.042L151.752 114.996L150.81 115.938L149.856 114.984ZM161.385 111.095C160.99 111.095 160.627 111.036 160.296 110.917C159.97 110.794 159.685 110.627 159.444 110.415C159.206 110.198 159.021 109.944 158.89 109.651C158.758 109.358 158.693 109.038 158.693 108.69C158.693 108.338 158.737 108.015 158.826 107.723C158.92 107.43 159.045 107.154 159.202 106.895C159.359 106.637 159.539 106.388 159.743 106.151C159.951 105.913 160.167 105.676 160.392 105.438L159.991 104.993L161.022 104.057C161.119 104.168 161.228 104.288 161.346 104.42C161.469 104.547 161.582 104.666 161.684 104.776C161.985 105.099 162.28 105.419 162.568 105.737C162.857 106.051 163.113 106.367 163.338 106.685C163.563 106.999 163.743 107.315 163.879 107.634C164.011 107.948 164.076 108.259 164.076 108.569V108.601C164.072 108.962 164 109.297 163.86 109.606C163.724 109.912 163.523 110.185 163.255 110.427C163.009 110.639 162.729 110.805 162.415 110.924C162.101 111.038 161.758 111.095 161.385 111.095ZM161.308 106.304C161.134 106.499 160.973 106.688 160.825 106.87C160.676 107.052 160.547 107.239 160.436 107.43C160.326 107.621 160.239 107.82 160.175 108.028C160.116 108.232 160.086 108.452 160.086 108.69C160.086 108.864 160.122 109.015 160.195 109.142C160.267 109.269 160.362 109.375 160.481 109.46C160.604 109.541 160.744 109.602 160.901 109.645C161.058 109.683 161.219 109.702 161.385 109.702C161.792 109.702 162.11 109.602 162.339 109.403C162.568 109.199 162.683 108.932 162.683 108.601C162.683 108.402 162.645 108.204 162.568 108.009C162.492 107.814 162.39 107.621 162.263 107.43C162.135 107.239 161.989 107.05 161.824 106.864C161.658 106.673 161.486 106.486 161.308 106.304ZM168.114 110.796C168.089 111.365 167.983 111.878 167.796 112.336C167.614 112.795 167.357 113.185 167.026 113.507C166.7 113.83 166.305 114.078 165.843 114.252C165.38 114.426 164.856 114.513 164.271 114.513H163.393V113.119H164.271C164.695 113.119 165.06 113.075 165.365 112.985C165.675 112.896 165.93 112.754 166.129 112.559C166.328 112.368 166.477 112.116 166.574 111.802C166.672 111.492 166.721 111.115 166.721 110.669V106.698H168.114V110.796ZM166.326 103.943L167.383 102.874L168.464 103.955L167.395 105.025L166.326 103.943ZM170.118 113.119C170.775 113.119 171.314 113.072 171.734 112.979C172.154 112.886 172.485 112.739 172.727 112.54C172.824 112.459 172.909 112.372 172.981 112.279C173.058 112.19 173.119 112.086 173.166 111.967C173.217 111.853 173.255 111.723 173.28 111.579C173.31 111.439 173.327 111.278 173.331 111.095H172.256C171.946 111.095 171.632 111.053 171.314 110.968C171 110.879 170.714 110.733 170.455 110.529C170.2 110.325 169.99 110.056 169.825 109.721C169.664 109.386 169.583 108.972 169.583 108.48C169.583 108.192 169.606 107.933 169.653 107.704C169.704 107.475 169.768 107.271 169.844 107.093C169.92 106.91 170.005 106.753 170.098 106.622C170.192 106.49 170.283 106.376 170.372 106.278C170.614 106.036 170.89 105.85 171.199 105.718C171.513 105.582 171.851 105.515 172.211 105.515C172.525 105.515 172.818 105.563 173.089 105.661C173.365 105.758 173.611 105.905 173.828 106.1C174.12 106.376 174.341 106.724 174.489 107.144C174.642 107.564 174.718 108.066 174.718 108.652V111C174.718 111.305 174.695 111.585 174.648 111.84C174.602 112.099 174.532 112.334 174.438 112.546C174.349 112.763 174.235 112.958 174.095 113.132C173.955 113.31 173.789 113.475 173.598 113.628C173.408 113.777 173.198 113.906 172.968 114.016C172.739 114.131 172.483 114.224 172.198 114.296C171.914 114.368 171.6 114.422 171.257 114.455C170.917 114.494 170.538 114.513 170.118 114.513V113.119ZM172.211 106.908C171.821 106.908 171.518 107.044 171.301 107.315C171.085 107.583 170.977 107.971 170.977 108.48C170.977 108.735 171.015 108.94 171.091 109.097C171.168 109.254 171.28 109.382 171.428 109.479C171.501 109.526 171.577 109.564 171.658 109.594C171.742 109.619 171.823 109.64 171.899 109.657C171.976 109.674 172.044 109.687 172.103 109.695C172.167 109.7 172.218 109.702 172.256 109.702H173.331V108.652C173.331 108.355 173.31 108.107 173.268 107.907C173.225 107.704 173.17 107.538 173.102 107.411C173.034 107.284 172.958 107.186 172.873 107.118C172.792 107.046 172.71 106.995 172.625 106.965C172.544 106.936 172.466 106.919 172.389 106.915C172.317 106.91 172.258 106.908 172.211 106.908ZM180.241 110.796C180.216 111.365 180.11 111.878 179.923 112.336C179.741 112.795 179.484 113.185 179.153 113.507C178.827 113.83 178.432 114.078 177.97 114.252C177.507 114.426 176.983 114.513 176.398 114.513H175.52V113.119H176.398C176.822 113.119 177.187 113.075 177.492 112.985C177.802 112.896 178.057 112.754 178.256 112.559C178.455 112.368 178.604 112.116 178.701 111.802C178.799 111.492 178.848 111.115 178.848 110.669V106.698H180.241V110.796ZM193.182 111.095H192.902C192.571 111.095 192.25 111.062 191.941 110.994C191.635 110.922 191.353 110.818 191.094 110.682C190.835 110.542 190.604 110.37 190.401 110.166C190.201 109.958 190.044 109.719 189.93 109.447C189.828 109.638 189.692 109.804 189.522 109.944C189.357 110.079 189.162 110.194 188.937 110.287C188.653 110.406 188.371 110.476 188.091 110.497C188.006 110.506 187.921 110.51 187.836 110.51C187.645 110.51 187.439 110.485 187.219 110.434C186.998 110.383 186.775 110.287 186.551 110.147C186.33 110.007 186.137 109.833 185.972 109.625C185.806 109.418 185.677 109.18 185.583 108.913C185.49 108.641 185.443 108.344 185.443 108.022C185.443 107.572 185.53 107.167 185.704 106.806C185.882 106.446 186.116 106.128 186.404 105.852C186.697 105.576 187.032 105.341 187.41 105.145C187.787 104.946 188.178 104.783 188.581 104.655C188.559 104.545 188.538 104.443 188.517 104.35C188.496 104.252 188.477 104.153 188.46 104.051L189.796 103.733L190.929 108.308C191.005 108.614 191.122 108.858 191.279 109.04C191.44 109.222 191.614 109.365 191.801 109.466C191.992 109.564 192.185 109.628 192.38 109.657C192.575 109.687 192.749 109.702 192.902 109.702H193.182V111.095ZM189.255 108.003C189.272 107.909 189.281 107.814 189.281 107.716C189.281 107.648 189.272 107.557 189.255 107.443C189.242 107.324 189.217 107.18 189.179 107.01C189.141 106.836 189.098 106.664 189.052 106.495C189.005 106.325 188.965 106.159 188.931 105.998C188.209 106.223 187.656 106.509 187.27 106.857C186.884 107.205 186.691 107.595 186.691 108.028C186.691 108.253 186.744 108.442 186.85 108.595C186.96 108.747 187.098 108.866 187.263 108.951C187.429 109.032 187.613 109.076 187.817 109.085H187.881C188.059 109.085 188.231 109.055 188.396 108.995C188.638 108.894 188.829 108.768 188.969 108.62C189.113 108.467 189.209 108.262 189.255 108.003ZM200.512 111.095C200.181 111.095 199.878 111.038 199.602 110.924C199.331 110.809 199.087 110.675 198.871 110.523C198.629 110.858 198.376 111.087 198.113 111.21C197.85 111.337 197.583 111.401 197.311 111.401C197.104 111.401 196.904 111.38 196.713 111.337C196.522 111.299 196.327 111.24 196.128 111.159C195.933 111.083 195.727 110.989 195.511 110.879C195.294 110.769 195.057 110.644 194.798 110.504C194.615 110.707 194.414 110.858 194.193 110.955C193.973 111.049 193.744 111.095 193.506 111.095H192.927V109.702H193.455C193.565 109.702 193.661 109.666 193.741 109.594C193.822 109.522 193.894 109.426 193.958 109.307C194.021 109.184 194.079 109.042 194.13 108.881C194.185 108.715 194.238 108.539 194.289 108.353C194.344 108.153 194.405 107.95 194.473 107.742C194.541 107.534 194.62 107.332 194.709 107.137C194.802 106.938 194.91 106.751 195.033 106.577C195.161 106.403 195.309 106.251 195.479 106.119C195.648 105.988 195.844 105.884 196.064 105.807C196.285 105.731 196.539 105.693 196.828 105.693C197.261 105.693 197.636 105.771 197.954 105.928C198.272 106.085 198.538 106.297 198.75 106.565C198.962 106.832 199.119 107.142 199.221 107.494C199.327 107.846 199.38 108.215 199.38 108.601C199.38 108.86 199.428 109.063 199.526 109.212C199.628 109.356 199.742 109.466 199.87 109.543C200.001 109.615 200.128 109.659 200.251 109.676C200.379 109.693 200.466 109.702 200.512 109.702H200.697V111.095H200.512ZM197.311 110.007C197.341 110.007 197.379 110.007 197.426 110.007C197.477 110.003 197.532 109.988 197.591 109.963C197.651 109.937 197.71 109.897 197.77 109.842C197.833 109.787 197.891 109.708 197.941 109.606C197.992 109.5 198.033 109.367 198.062 109.205C198.096 109.044 198.113 108.843 198.113 108.601C198.113 108.558 198.107 108.491 198.094 108.397C198.081 108.304 198.058 108.202 198.024 108.092C197.99 107.977 197.944 107.861 197.884 107.742C197.825 107.623 197.746 107.515 197.649 107.417C197.555 107.32 197.441 107.239 197.305 107.175C197.169 107.112 197.01 107.08 196.828 107.08C196.658 107.08 196.51 107.114 196.382 107.182C196.255 107.25 196.145 107.343 196.051 107.462C195.958 107.576 195.878 107.708 195.81 107.856C195.746 108.005 195.687 108.16 195.631 108.321C195.581 108.482 195.534 108.643 195.491 108.805C195.449 108.966 195.404 109.114 195.358 109.25C195.523 109.339 195.695 109.43 195.873 109.524C196.056 109.613 196.232 109.695 196.401 109.772C196.575 109.844 196.741 109.901 196.898 109.944C197.042 109.986 197.169 110.007 197.28 110.007H197.311ZM206.504 104.127C206.852 104.59 207.185 105.029 207.503 105.445C207.634 105.623 207.77 105.803 207.91 105.985C208.05 106.168 208.184 106.344 208.311 106.514C208.442 106.679 208.563 106.834 208.674 106.978C208.784 107.118 208.875 107.235 208.947 107.328C209.083 107.502 209.191 107.695 209.272 107.907C209.357 108.115 209.416 108.327 209.45 108.544C209.467 108.684 209.475 108.822 209.475 108.957C209.475 109.038 209.469 109.152 209.456 109.301C209.448 109.445 209.414 109.608 209.355 109.791C209.274 110.037 209.155 110.262 208.998 110.465C208.841 110.669 208.648 110.845 208.419 110.994C208.194 111.142 207.935 111.257 207.643 111.337C207.35 111.418 207.03 111.458 206.682 111.458C206.385 111.458 206.075 111.426 205.753 111.363C205.435 111.303 205.11 111.191 204.779 111.025C204.694 110.992 204.614 110.955 204.537 110.917C204.469 110.888 204.399 110.856 204.327 110.822C204.259 110.788 204.202 110.758 204.155 110.733C203.354 110.975 202.352 111.095 201.152 111.095H200.439V109.702H201.152C201.394 109.702 201.619 109.7 201.826 109.695C202.039 109.691 202.249 109.678 202.456 109.657C202.202 109.398 202.002 109.114 201.858 108.805C201.714 108.491 201.642 108.138 201.642 107.748C201.642 107.413 201.705 107.105 201.833 106.825C201.964 106.545 202.142 106.306 202.367 106.106C202.592 105.907 202.857 105.752 203.163 105.642C203.468 105.527 203.797 105.47 204.149 105.47C204.412 105.47 204.656 105.506 204.881 105.578C205.106 105.65 205.309 105.748 205.492 105.871C205.679 105.994 205.842 106.136 205.982 106.297C206.122 106.458 206.239 106.628 206.332 106.806C206.429 106.98 206.502 107.158 206.548 107.341C206.599 107.519 206.625 107.689 206.625 107.85C206.625 108.274 206.542 108.658 206.376 109.002C206.211 109.341 205.982 109.645 205.689 109.912C205.842 109.967 206.005 110.014 206.179 110.052C206.353 110.09 206.521 110.109 206.682 110.109C206.822 110.109 206.968 110.098 207.121 110.077C207.274 110.052 207.418 110.009 207.554 109.95C207.689 109.886 207.81 109.802 207.916 109.695C208.027 109.589 208.109 109.454 208.165 109.288C208.186 109.22 208.196 109.148 208.196 109.072C208.196 108.923 208.143 108.73 208.037 108.493C207.935 108.255 207.753 107.954 207.49 107.589C207.231 107.22 206.922 106.815 206.561 106.374C206.2 105.932 205.816 105.459 205.409 104.955L206.504 104.127ZM202.953 107.748C202.953 108.088 203.059 108.385 203.271 108.639C203.483 108.894 203.801 109.133 204.225 109.358C204.37 109.29 204.508 109.205 204.639 109.104C204.771 109.002 204.887 108.887 204.989 108.76C205.091 108.628 205.172 108.488 205.231 108.34C205.295 108.187 205.326 108.03 205.326 107.869C205.326 107.674 205.284 107.504 205.199 107.36C205.119 107.212 205.017 107.088 204.894 106.991C204.775 106.893 204.648 106.821 204.512 106.775C204.376 106.728 204.255 106.705 204.149 106.705C203.992 106.705 203.842 106.734 203.697 106.794C203.553 106.849 203.426 106.925 203.315 107.023C203.205 107.116 203.116 107.226 203.048 107.354C202.985 107.477 202.953 107.608 202.953 107.748Z" fill="#455A64"/>
</svg>
