<svg width="230" height="240" viewBox="0 0 230 240" fill="none" xmlns="http://www.w3.org/2000/svg">
<rect y="33" width="230" height="207" rx="12" fill="#171717"/>
<path d="M31.3587 144.095C30.9472 144.095 30.6057 144.049 30.3342 143.955C30.0669 143.858 29.8505 143.69 29.6851 143.453C29.5663 143.601 29.439 143.72 29.3033 143.809C29.1675 143.898 29.0317 143.966 28.896 144.013C28.7645 144.064 28.6372 144.095 28.5142 144.108C28.3954 144.125 28.2914 144.134 28.2023 144.134C27.9648 144.134 27.6826 144.072 27.356 143.949C27.0293 143.826 26.6793 143.675 26.306 143.497C25.9326 143.315 25.5487 143.12 25.1542 142.912C24.7596 142.7 24.3757 142.505 24.0023 142.326L24.0151 148.2H22.6723L22.666 141.684L24.0596 140.837L25.1669 141.385C25.2136 141.138 25.2687 140.895 25.3323 140.653C25.396 140.407 25.4745 140.173 25.5678 139.953C25.6611 139.732 25.7714 139.526 25.8987 139.335C26.026 139.145 26.1745 138.979 26.3442 138.839C26.5181 138.699 26.7196 138.591 26.9487 138.515C27.1608 138.447 27.4005 138.413 27.6678 138.413H27.7187C28.1302 138.413 28.4929 138.493 28.8069 138.655C29.1251 138.812 29.3902 139.026 29.6023 139.297C29.8187 139.565 29.982 139.874 30.0923 140.226C30.2026 140.578 30.2578 140.948 30.2578 141.334C30.2578 141.406 30.2557 141.476 30.2514 141.544C30.2514 141.612 30.2493 141.677 30.2451 141.741C30.2493 141.94 30.2981 142.104 30.3914 142.231C30.4848 142.354 30.5908 142.452 30.7096 142.524C30.8326 142.592 30.9557 142.638 31.0787 142.664C31.2017 142.689 31.2951 142.702 31.3587 142.702H31.626V144.095H31.3587ZM28.2023 142.746C28.2448 142.746 28.3105 142.742 28.3996 142.734C28.4887 142.721 28.5778 142.672 28.6669 142.587C28.7602 142.502 28.8408 142.365 28.9087 142.174C28.9766 141.978 29.0105 141.698 29.0105 141.334C29.0105 141.291 29.0042 141.223 28.9914 141.13C28.9787 141.037 28.9554 140.935 28.9214 140.825C28.8917 140.71 28.8472 140.593 28.7878 140.475C28.7284 140.352 28.652 140.241 28.5587 140.144C28.4654 140.046 28.3508 139.965 28.2151 139.902C28.0836 139.838 27.9266 139.806 27.7442 139.806C27.5957 139.806 27.4557 139.83 27.3242 139.876C27.1969 139.919 27.076 140.018 26.9614 140.175C26.8511 140.332 26.7493 140.559 26.656 140.856C26.5626 141.153 26.4757 141.552 26.3951 142.053C26.569 142.146 26.7408 142.235 26.9105 142.32C27.0845 142.405 27.2499 142.479 27.4069 142.543C27.5639 142.606 27.7102 142.657 27.846 142.695C27.9817 142.729 28.1005 142.746 28.2023 142.746ZM38.3918 142.702V144.095H37.3736C37.0003 144.095 36.6652 144.045 36.3682 143.943C36.0712 143.837 35.8273 143.682 35.6364 143.478C35.4073 143.678 35.1273 143.83 34.7964 143.936C34.4697 144.042 34.0985 144.095 33.6827 144.095H31.3855V142.702H33.6827C33.9627 142.702 34.1855 142.674 34.3509 142.619C34.5206 142.564 34.6479 142.496 34.7327 142.415C34.8176 142.331 34.8727 142.239 34.8982 142.142C34.9236 142.04 34.9364 141.942 34.9364 141.849V139.692H36.3236V141.805C36.3236 141.949 36.3448 142.072 36.3873 142.174C36.4339 142.271 36.4912 142.354 36.5591 142.422C36.627 142.485 36.7012 142.536 36.7818 142.575C36.8624 142.613 36.9409 142.642 37.0173 142.664C37.0979 142.681 37.17 142.691 37.2336 142.695C37.2973 142.7 37.3439 142.702 37.3736 142.702H38.3918ZM35.6109 147.5L34.6055 146.482L35.5982 145.451L36.6291 146.482L35.6109 147.5ZM33.1864 147.487L32.1809 146.469L33.1736 145.438L34.2045 146.469L33.1864 147.487ZM42.893 137.955L41.8875 136.936L42.8803 135.905L43.9112 136.936L42.893 137.955ZM40.3348 137.942L39.3294 136.924L40.3157 135.893L41.3466 136.924L40.3348 137.942ZM45.1457 142.702V144.095H44.1275C43.7542 144.095 43.4191 144.045 43.1221 143.943C42.8251 143.837 42.5812 143.682 42.3903 143.478C42.1612 143.678 41.8812 143.83 41.5503 143.936C41.2236 144.042 40.8524 144.095 40.4366 144.095H38.1394V142.702H40.4366C40.7166 142.702 40.9394 142.674 41.1048 142.619C41.2745 142.564 41.4018 142.496 41.4866 142.415C41.5715 142.331 41.6266 142.239 41.6521 142.142C41.6775 142.04 41.6903 141.942 41.6903 141.849V139.692H43.0775V141.805C43.0775 141.949 43.0988 142.072 43.1412 142.174C43.1878 142.271 43.2451 142.354 43.313 142.422C43.3809 142.485 43.4551 142.536 43.5357 142.575C43.6163 142.613 43.6948 142.642 43.7712 142.664C43.8518 142.681 43.9239 142.691 43.9875 142.695C44.0512 142.7 44.0978 142.702 44.1275 142.702H45.1457ZM44.836 142.702H45.6378C45.9093 142.702 46.1278 142.678 46.2933 142.632C46.463 142.585 46.5945 142.517 46.6878 142.428C46.7811 142.335 46.8427 142.222 46.8724 142.091C46.9063 141.959 46.9233 141.811 46.9233 141.645V139.698H48.3169V141.614C48.3169 141.991 48.406 142.267 48.5842 142.441C48.7666 142.611 49.0551 142.698 49.4496 142.702C49.5175 142.698 49.6024 142.685 49.7042 142.664C49.8102 142.638 49.9099 142.589 50.0033 142.517C50.1008 142.441 50.1836 142.335 50.2514 142.199C50.3193 142.059 50.3533 141.875 50.3533 141.645V139.698H51.7405V141.614C51.7405 141.995 51.8318 142.273 52.0142 142.447C52.1966 142.617 52.4893 142.702 52.8924 142.702C53.0069 142.702 53.1193 142.685 53.2296 142.651C53.3399 142.613 53.4396 142.553 53.5287 142.473C53.6178 142.392 53.6899 142.288 53.7451 142.161C53.8045 142.029 53.8384 141.868 53.8469 141.677V139.698H55.2405V141.677C55.249 142.038 55.3572 142.299 55.5651 142.46C55.773 142.621 56.089 142.702 56.5133 142.702H57.1751V144.095H56.5133C56.0805 144.095 55.6987 144.042 55.3678 143.936C55.0411 143.826 54.7654 143.661 54.5405 143.44C54.3369 143.661 54.0887 143.826 53.796 143.936C53.5075 144.042 53.2063 144.095 52.8924 144.095C52.4936 144.095 52.1436 144.042 51.8424 143.936C51.5411 143.826 51.276 143.663 51.0469 143.446C50.8305 143.65 50.5824 143.809 50.3024 143.924C50.0266 144.034 49.7508 144.091 49.4751 144.095H49.4305C49.0445 144.095 48.703 144.04 48.406 143.93C48.109 143.815 47.8524 143.663 47.636 143.472C47.3942 143.68 47.1099 143.837 46.7833 143.943C46.4566 144.045 46.0748 144.095 45.6378 144.095H44.836V142.702ZM63.0174 137.127C63.3652 137.59 63.6983 138.029 64.0164 138.445C64.148 138.623 64.2837 138.803 64.4237 138.985C64.5637 139.168 64.6974 139.344 64.8246 139.514C64.9561 139.679 65.077 139.834 65.1874 139.978C65.2977 140.118 65.3889 140.235 65.461 140.328C65.5967 140.502 65.7049 140.695 65.7855 140.907C65.8704 141.115 65.9298 141.327 65.9637 141.544C65.9807 141.684 65.9892 141.822 65.9892 141.957C65.9892 142.038 65.9828 142.152 65.9701 142.301C65.9616 142.445 65.9277 142.608 65.8683 142.791C65.7877 143.037 65.6689 143.262 65.5119 143.465C65.3549 143.669 65.1619 143.845 64.9328 143.994C64.708 144.142 64.4492 144.257 64.1564 144.337C63.8637 144.418 63.5434 144.458 63.1955 144.458C62.8986 144.458 62.5889 144.426 62.2664 144.363C61.9483 144.303 61.6237 144.191 61.2928 144.025C61.208 143.992 61.1274 143.955 61.051 143.917C60.9831 143.888 60.9131 143.856 60.841 143.822C60.7731 143.788 60.7158 143.758 60.6692 143.733C59.8674 143.975 58.8661 144.095 57.6655 144.095H56.9528V142.702H57.6655C57.9074 142.702 58.1322 142.7 58.3401 142.695C58.5522 142.691 58.7622 142.678 58.9701 142.657C58.7155 142.398 58.5161 142.114 58.3719 141.805C58.2277 141.491 58.1555 141.138 58.1555 140.748C58.1555 140.413 58.2192 140.105 58.3464 139.825C58.478 139.545 58.6561 139.306 58.881 139.106C59.1058 138.907 59.371 138.752 59.6764 138.642C59.9819 138.527 60.3107 138.47 60.6628 138.47C60.9258 138.47 61.1698 138.506 61.3946 138.578C61.6195 138.65 61.8231 138.748 62.0055 138.871C62.1922 138.994 62.3555 139.136 62.4955 139.297C62.6355 139.458 62.7522 139.628 62.8455 139.806C62.9431 139.98 63.0152 140.158 63.0619 140.341C63.1128 140.519 63.1383 140.689 63.1383 140.85C63.1383 141.274 63.0555 141.658 62.8901 142.002C62.7246 142.341 62.4955 142.645 62.2028 142.912C62.3555 142.967 62.5189 143.014 62.6928 143.052C62.8667 143.09 63.0343 143.109 63.1955 143.109C63.3355 143.109 63.4819 143.098 63.6346 143.077C63.7874 143.052 63.9316 143.009 64.0674 142.95C64.2031 142.886 64.324 142.802 64.4301 142.695C64.5404 142.589 64.6231 142.454 64.6783 142.288C64.6995 142.22 64.7101 142.148 64.7101 142.072C64.7101 141.923 64.657 141.73 64.551 141.493C64.4492 141.255 64.2667 140.954 64.0037 140.589C63.7449 140.22 63.4352 139.815 63.0746 139.374C62.714 138.932 62.3301 138.459 61.9228 137.955L63.0174 137.127ZM59.4664 140.748C59.4664 141.088 59.5725 141.385 59.7846 141.639C59.9967 141.894 60.3149 142.133 60.7392 142.358C60.8834 142.29 61.0213 142.205 61.1528 142.104C61.2843 142.002 61.401 141.887 61.5028 141.76C61.6046 141.628 61.6852 141.488 61.7446 141.34C61.8083 141.187 61.8401 141.03 61.8401 140.869C61.8401 140.674 61.7977 140.504 61.7128 140.36C61.6322 140.212 61.5304 140.088 61.4074 139.991C61.2886 139.893 61.1613 139.821 61.0255 139.775C60.8898 139.728 60.7689 139.705 60.6628 139.705C60.5058 139.705 60.3552 139.734 60.211 139.794C60.0667 139.849 59.9395 139.925 59.8292 140.023C59.7189 140.116 59.6298 140.226 59.5619 140.354C59.4983 140.477 59.4664 140.608 59.4664 140.748ZM75.0543 144.095C74.6131 144.095 74.2355 144.068 73.9215 144.013C73.6076 143.958 73.3425 143.875 73.1261 143.765C72.914 143.654 72.7421 143.516 72.6106 143.351C72.4834 143.181 72.3858 142.984 72.3179 142.759C72.25 142.53 72.2055 142.273 72.1843 141.989C72.1631 141.705 72.1525 141.389 72.1525 141.041V134.919H73.5461V141.041C73.5461 141.397 73.5567 141.686 73.5779 141.906C73.6034 142.123 73.6649 142.29 73.7625 142.409C73.8643 142.528 74.0149 142.606 74.2143 142.645C74.4179 142.683 74.6979 142.702 75.0543 142.702V144.095ZM82.3874 144.095C82.0565 144.095 81.7531 144.038 81.4774 143.924C81.2058 143.809 80.9619 143.675 80.7455 143.523C80.5037 143.858 80.2513 144.087 79.9883 144.21C79.7252 144.337 79.458 144.401 79.1865 144.401C78.9786 144.401 78.7792 144.38 78.5883 144.337C78.3974 144.299 78.2022 144.24 78.0028 144.159C77.8077 144.083 77.6019 143.989 77.3855 143.879C77.1692 143.769 76.9316 143.644 76.6728 143.504C76.4904 143.707 76.2889 143.858 76.0683 143.955C75.8477 144.049 75.6186 144.095 75.381 144.095H74.8019V142.702H75.3301C75.4404 142.702 75.5358 142.666 75.6165 142.594C75.6971 142.522 75.7692 142.426 75.8328 142.307C75.8965 142.184 75.9537 142.042 76.0046 141.881C76.0598 141.715 76.1128 141.539 76.1637 141.353C76.2189 141.153 76.2804 140.95 76.3483 140.742C76.4162 140.534 76.4946 140.332 76.5837 140.137C76.6771 139.938 76.7852 139.751 76.9083 139.577C77.0355 139.403 77.184 139.251 77.3537 139.119C77.5234 138.988 77.7186 138.884 77.9392 138.807C78.1598 138.731 78.4143 138.693 78.7028 138.693C79.1355 138.693 79.511 138.771 79.8292 138.928C80.1474 139.085 80.4125 139.297 80.6246 139.565C80.8368 139.832 80.9937 140.142 81.0955 140.494C81.2016 140.846 81.2546 141.215 81.2546 141.601C81.2546 141.86 81.3034 142.063 81.401 142.212C81.5028 142.356 81.6174 142.466 81.7446 142.543C81.8762 142.615 82.0034 142.659 82.1265 142.676C82.2537 142.693 82.3407 142.702 82.3874 142.702H82.5719V144.095H82.3874ZM79.1865 143.007C79.2162 143.007 79.2543 143.007 79.301 143.007C79.3519 143.003 79.4071 142.988 79.4665 142.963C79.5258 142.937 79.5852 142.897 79.6446 142.842C79.7083 142.787 79.7655 142.708 79.8165 142.606C79.8674 142.5 79.9077 142.367 79.9374 142.205C79.9713 142.044 79.9883 141.843 79.9883 141.601C79.9883 141.558 79.9819 141.491 79.9692 141.397C79.9565 141.304 79.9331 141.202 79.8992 141.092C79.8652 140.977 79.8186 140.861 79.7592 140.742C79.6998 140.623 79.6213 140.515 79.5237 140.417C79.4304 140.32 79.3158 140.239 79.1801 140.175C79.0443 140.112 78.8852 140.08 78.7028 140.08C78.5331 140.08 78.3846 140.114 78.2574 140.182C78.1301 140.25 78.0198 140.343 77.9265 140.462C77.8331 140.576 77.7525 140.708 77.6846 140.856C77.621 141.005 77.5616 141.16 77.5065 141.321C77.4555 141.482 77.4089 141.643 77.3665 141.805C77.324 141.966 77.2795 142.114 77.2328 142.25C77.3983 142.339 77.5701 142.43 77.7483 142.524C77.9307 142.613 78.1068 142.695 78.2765 142.772C78.4504 142.844 78.6158 142.901 78.7728 142.944C78.9171 142.986 79.0443 143.007 79.1546 143.007H79.1865ZM87.125 144.083C86.7305 144.083 86.3784 144.03 86.0687 143.924C85.7632 143.813 85.5002 143.652 85.2796 143.44C85.0505 143.661 84.7896 143.826 84.4969 143.936C84.2084 144.042 83.9178 144.095 83.625 144.095H82.2187V142.702H83.625C83.6802 142.702 83.7608 142.693 83.8669 142.676C83.9772 142.655 84.0853 142.608 84.1914 142.536C84.2975 142.464 84.3887 142.358 84.465 142.218C84.5456 142.074 84.586 141.877 84.586 141.626V139.698H85.9796V141.601C85.9796 141.983 86.0687 142.261 86.2469 142.435C86.425 142.608 86.7178 142.695 87.125 142.695C87.1802 142.695 87.2608 142.685 87.3669 142.664C87.4772 142.642 87.5853 142.596 87.6914 142.524C87.7975 142.447 87.8887 142.337 87.965 142.193C88.0456 142.048 88.086 141.851 88.086 141.601V139.698H89.4732V141.601C89.4732 141.983 89.5644 142.263 89.7469 142.441C89.9293 142.619 90.2263 142.708 90.6378 142.708C90.7014 142.708 90.7863 142.695 90.8923 142.67C90.9984 142.645 91.1023 142.594 91.2041 142.517C91.306 142.441 91.395 142.331 91.4714 142.186C91.5478 142.038 91.586 141.843 91.586 141.601C91.586 141.508 91.5775 141.393 91.5605 141.257C91.5435 141.117 91.5223 140.969 91.4969 140.812C91.4714 140.655 91.4417 140.496 91.4078 140.335C91.3781 140.169 91.3463 140.014 91.3123 139.87C91.2826 139.722 91.2529 139.59 91.2232 139.475C91.1935 139.361 91.1702 139.274 91.1532 139.215L92.4705 138.795C92.479 138.82 92.496 138.888 92.5214 138.998C92.5511 139.108 92.5829 139.244 92.6169 139.405C92.655 139.567 92.6932 139.745 92.7314 139.94C92.7738 140.135 92.812 140.332 92.846 140.532C92.8799 140.731 92.9075 140.924 92.9287 141.111C92.9499 141.298 92.9605 141.461 92.9605 141.601C92.9605 142.021 92.8905 142.386 92.7505 142.695C92.6147 143.005 92.4366 143.264 92.216 143.472C91.9996 143.68 91.7514 143.835 91.4714 143.936C91.1956 144.038 90.9178 144.091 90.6378 144.095C90.2432 144.095 89.889 144.038 89.575 143.924C89.2611 143.809 88.9917 143.646 88.7669 143.434C88.5378 143.654 88.279 143.818 87.9905 143.924C87.7063 144.03 87.4178 144.083 87.125 144.083ZM88.5569 136.885L87.5387 137.916L86.5205 136.898L87.5387 135.867L88.5569 136.885ZM91.2869 136.86L90.2814 137.878L89.2314 136.873L90.2623 135.842L91.2869 136.86ZM89.8805 135.065L88.926 136.02L87.9841 135.078L88.9387 134.124L89.8805 135.065ZM103.746 146.202C104.154 146.202 104.506 146.168 104.803 146.1C105.1 146.032 105.344 145.924 105.535 145.775C105.725 145.627 105.865 145.434 105.955 145.196C106.048 144.959 106.095 144.67 106.095 144.331C105.708 144.229 105.327 144.125 104.949 144.019C104.788 143.977 104.618 143.932 104.44 143.885C104.266 143.839 104.09 143.792 103.912 143.745C103.738 143.695 103.566 143.648 103.396 143.605C103.231 143.563 103.076 143.523 102.932 143.485C102.766 143.073 102.671 142.664 102.645 142.256C102.637 142.159 102.633 142.061 102.633 141.964C102.633 141.662 102.673 141.348 102.754 141.022C102.838 140.695 102.985 140.373 103.193 140.055C103.401 139.736 103.659 139.461 103.969 139.227C104.279 138.994 104.637 138.812 105.045 138.68C105.452 138.544 105.902 138.476 106.394 138.476C106.597 138.476 106.801 138.491 107.005 138.521C107.208 138.551 107.427 138.595 107.66 138.655L107.31 139.997C107.132 139.946 106.966 139.91 106.814 139.889C106.665 139.864 106.515 139.851 106.362 139.851C106.014 139.851 105.689 139.908 105.388 140.023C105.091 140.133 104.835 140.294 104.618 140.506C104.406 140.714 104.247 140.967 104.141 141.264C104.056 141.493 104.014 141.741 104.014 142.008C104.014 142.093 104.018 142.178 104.026 142.263C104.205 142.309 104.376 142.356 104.542 142.403C104.712 142.445 104.885 142.49 105.064 142.536C105.246 142.583 105.439 142.632 105.643 142.683C105.846 142.734 106.073 142.789 106.324 142.848C106.71 142.946 106.988 143.107 107.157 143.332C107.327 143.557 107.412 143.839 107.412 144.178C107.412 144.751 107.346 145.252 107.215 145.68C107.083 146.108 106.871 146.465 106.578 146.749C106.285 147.033 105.906 147.248 105.439 147.392C104.977 147.536 104.412 147.608 103.746 147.608H102.404C102.064 147.608 101.738 147.568 101.424 147.487C101.114 147.411 100.823 147.298 100.552 147.15C100.28 147.006 100.03 146.828 99.8009 146.615C99.5761 146.408 99.3767 146.172 99.2027 145.909C98.7912 145.243 98.5855 144.465 98.5855 143.574C98.5855 143.022 98.6682 142.445 98.8336 141.843C98.9991 141.24 99.2515 140.587 99.5909 139.883L100.825 140.481C100.541 141.083 100.329 141.635 100.189 142.135C100.049 142.632 99.9791 143.101 99.9791 143.542C99.9791 144.174 100.119 144.713 100.399 145.158C100.603 145.498 100.881 145.756 101.233 145.935C101.585 146.113 101.975 146.202 102.404 146.202H103.746ZM109.667 146.119C110.324 146.119 110.863 146.072 111.283 145.979C111.703 145.886 112.034 145.739 112.276 145.54C112.374 145.459 112.458 145.372 112.531 145.279C112.607 145.19 112.668 145.086 112.715 144.967C112.766 144.853 112.804 144.723 112.83 144.579C112.859 144.439 112.876 144.278 112.881 144.095H111.805C111.495 144.095 111.181 144.053 110.863 143.968C110.549 143.879 110.263 143.733 110.004 143.529C109.75 143.325 109.54 143.056 109.374 142.721C109.213 142.386 109.132 141.972 109.132 141.48C109.132 141.192 109.156 140.933 109.202 140.704C109.253 140.475 109.317 140.271 109.393 140.093C109.47 139.91 109.554 139.753 109.648 139.622C109.741 139.49 109.832 139.376 109.921 139.278C110.163 139.036 110.439 138.85 110.749 138.718C111.063 138.582 111.4 138.515 111.761 138.515C112.074 138.515 112.367 138.563 112.639 138.661C112.914 138.758 113.161 138.905 113.377 139.1C113.67 139.376 113.89 139.724 114.039 140.144C114.191 140.564 114.268 141.066 114.268 141.652V142.702H115.432V144.095H114.268C114.259 144.681 114.162 145.175 113.975 145.578C113.793 145.981 113.517 146.331 113.148 146.628C112.957 146.777 112.747 146.906 112.518 147.016C112.289 147.131 112.032 147.224 111.748 147.296C111.464 147.368 111.15 147.422 110.806 147.455C110.467 147.494 110.087 147.513 109.667 147.513V146.119ZM111.761 139.908C111.37 139.908 111.067 140.044 110.851 140.315C110.634 140.583 110.526 140.971 110.526 141.48C110.526 141.735 110.564 141.94 110.641 142.097C110.717 142.254 110.829 142.382 110.978 142.479C111.05 142.526 111.126 142.564 111.207 142.594C111.292 142.619 111.372 142.64 111.449 142.657C111.525 142.674 111.593 142.687 111.652 142.695C111.716 142.7 111.767 142.702 111.805 142.702H112.881V141.652C112.881 141.355 112.859 141.107 112.817 140.907C112.774 140.704 112.719 140.538 112.651 140.411C112.584 140.284 112.507 140.186 112.422 140.118C112.342 140.046 112.259 139.995 112.174 139.965C112.094 139.936 112.015 139.919 111.939 139.915C111.867 139.91 111.807 139.908 111.761 139.908ZM123.34 144.095H123.149C122.775 144.095 122.451 144.059 122.175 143.987C121.899 143.911 121.651 143.807 121.43 143.675C121.21 143.54 121.006 143.381 120.82 143.198C120.633 143.012 120.442 142.808 120.247 142.587C120.187 142.702 120.111 142.816 120.018 142.931C119.929 143.045 119.829 143.154 119.719 143.255C119.608 143.357 119.487 143.453 119.356 143.542C119.224 143.627 119.089 143.701 118.949 143.765C118.694 143.875 118.41 143.958 118.096 144.013C117.782 144.068 117.457 144.095 117.122 144.095H115.156V142.702H117.211C117.436 142.702 117.653 142.685 117.86 142.651C118.068 142.613 118.257 142.564 118.427 142.505C118.596 142.441 118.743 142.367 118.866 142.282C118.993 142.193 119.089 142.097 119.152 141.995C119.173 141.949 119.19 141.896 119.203 141.836C119.216 141.773 119.222 141.711 119.222 141.652C119.222 141.525 119.178 141.365 119.089 141.175C119 140.979 118.881 140.765 118.732 140.532C118.584 140.298 118.414 140.055 118.223 139.8C118.032 139.541 117.835 139.287 117.631 139.036C117.432 138.782 117.233 138.54 117.033 138.311C116.838 138.078 116.66 137.87 116.499 137.687L116.747 136.491L122.474 133.85L123.047 135.129L118.032 137.439L120.489 140.723C120.73 141.045 120.951 141.329 121.15 141.575C121.35 141.822 121.549 142.029 121.749 142.199C121.952 142.365 122.164 142.49 122.385 142.575C122.606 142.659 122.86 142.702 123.149 142.702H123.34V144.095ZM116.95 134.556L121.736 132.482L122.029 133.118L116.874 135.365L116.95 134.556ZM130.918 142.186C130.965 142.318 131.035 142.418 131.128 142.485C131.222 142.558 131.319 142.611 131.421 142.645C131.523 142.674 131.618 142.691 131.707 142.695C131.796 142.7 131.86 142.702 131.898 142.702H133.114V144.095H131.898C131.572 144.095 131.268 144.049 130.988 143.955C130.708 143.858 130.458 143.718 130.237 143.535V143.529C130.008 143.342 129.826 143.111 129.69 142.835C129.66 142.848 129.629 142.863 129.595 142.88C129.153 143.092 128.68 143.289 128.176 143.472C127.671 143.65 127.142 143.798 126.591 143.917C126.044 144.036 125.496 144.095 124.949 144.095H123.116V142.702H124.949C125.246 142.702 125.554 142.681 125.872 142.638C126.19 142.596 126.506 142.538 126.82 142.466C127.138 142.39 127.452 142.303 127.762 142.205C128.072 142.108 128.369 142.004 128.653 141.894C128.941 141.783 129.211 141.671 129.461 141.556C129.711 141.438 129.936 141.321 130.136 141.206L126.96 140.093C126.769 140.038 126.599 140.01 126.451 140.01C126.302 140.006 126.171 140.031 126.056 140.086C125.942 140.142 125.842 140.228 125.757 140.347C125.672 140.466 125.596 140.617 125.528 140.799L124.243 140.411C124.332 140.127 124.453 139.855 124.606 139.596C124.758 139.338 124.947 139.121 125.172 138.947C125.397 138.769 125.66 138.65 125.961 138.591C126.054 138.574 126.152 138.565 126.254 138.565C126.479 138.565 126.725 138.608 126.992 138.693C127.229 138.769 127.444 138.841 127.635 138.909C127.83 138.973 128.021 139.041 128.207 139.113C128.394 139.181 128.589 139.255 128.793 139.335C129.001 139.412 129.238 139.501 129.506 139.603C129.777 139.705 130.091 139.823 130.447 139.959C130.804 140.091 131.226 140.243 131.714 140.417L131.886 141.588C131.86 141.605 131.748 141.677 131.548 141.805C131.383 141.915 131.173 142.042 130.918 142.186ZM124.975 135.975L126.031 134.906L127.113 135.988L126.044 137.057L124.975 135.975ZM137.738 144.083C137.344 144.083 136.991 144.03 136.682 143.924C136.376 143.813 136.113 143.652 135.893 143.44C135.664 143.661 135.403 143.826 135.11 143.936C134.821 144.042 134.531 144.095 134.238 144.095H132.832V142.702H134.238C134.293 142.702 134.374 142.693 134.48 142.676C134.59 142.655 134.698 142.608 134.804 142.536C134.91 142.464 135.002 142.358 135.078 142.218C135.159 142.074 135.199 141.877 135.199 141.626V139.698H136.593V141.601C136.593 141.983 136.682 142.261 136.86 142.435C137.038 142.608 137.331 142.695 137.738 142.695C137.793 142.695 137.874 142.685 137.98 142.664C138.09 142.642 138.198 142.596 138.304 142.524C138.41 142.447 138.502 142.337 138.578 142.193C138.659 142.048 138.699 141.851 138.699 141.601V139.698H140.086V141.601C140.086 141.983 140.177 142.263 140.36 142.441C140.542 142.619 140.839 142.708 141.251 142.708C141.314 142.708 141.399 142.695 141.505 142.67C141.611 142.645 141.715 142.594 141.817 142.517C141.919 142.441 142.008 142.331 142.084 142.186C142.161 142.038 142.199 141.843 142.199 141.601C142.199 141.508 142.19 141.393 142.174 141.257C142.157 141.117 142.135 140.969 142.11 140.812C142.084 140.655 142.055 140.496 142.021 140.335C141.991 140.169 141.959 140.014 141.925 139.87C141.896 139.722 141.866 139.59 141.836 139.475C141.807 139.361 141.783 139.274 141.766 139.215L143.084 138.795C143.092 138.82 143.109 138.888 143.134 138.998C143.164 139.108 143.196 139.244 143.23 139.405C143.268 139.567 143.306 139.745 143.344 139.94C143.387 140.135 143.425 140.332 143.459 140.532C143.493 140.731 143.52 140.924 143.542 141.111C143.563 141.298 143.574 141.461 143.574 141.601C143.574 142.021 143.504 142.386 143.364 142.695C143.228 143.005 143.05 143.264 142.829 143.472C142.613 143.68 142.364 143.835 142.084 143.936C141.809 144.038 141.531 144.091 141.251 144.095C140.856 144.095 140.502 144.038 140.188 143.924C139.874 143.809 139.605 143.646 139.38 143.434C139.151 143.654 138.892 143.818 138.604 143.924C138.319 144.03 138.031 144.083 137.738 144.083ZM148.199 144.095C147.758 144.095 147.38 144.068 147.066 144.013C146.752 143.958 146.487 143.875 146.271 143.765C146.058 143.654 145.887 143.516 145.755 143.351C145.628 143.181 145.53 142.984 145.462 142.759C145.395 142.53 145.35 142.273 145.329 141.989C145.308 141.705 145.297 141.389 145.297 141.041V134.919H146.691V141.041C146.691 141.397 146.701 141.686 146.722 141.906C146.748 142.123 146.809 142.29 146.907 142.409C147.009 142.528 147.159 142.606 147.359 142.645C147.562 142.683 147.842 142.702 148.199 142.702V144.095ZM152.668 138.795C152.677 138.82 152.694 138.89 152.719 139.005C152.745 139.115 152.774 139.253 152.808 139.418C152.846 139.584 152.883 139.766 152.916 139.965C152.955 140.165 152.989 140.366 153.018 140.57C153.052 140.769 153.08 140.965 153.101 141.155C153.122 141.342 153.133 141.505 153.133 141.645C153.133 142.065 153.063 142.43 152.923 142.74C152.783 143.05 152.6 143.304 152.376 143.504C152.155 143.703 151.905 143.852 151.625 143.949C151.345 144.047 151.065 144.095 150.785 144.095H147.953V142.702H150.829C150.884 142.702 150.965 142.693 151.071 142.676C151.181 142.659 151.289 142.617 151.396 142.549C151.502 142.477 151.593 142.371 151.669 142.231C151.75 142.091 151.79 141.896 151.79 141.645C151.79 141.552 151.782 141.435 151.765 141.295C151.748 141.155 151.726 141.005 151.701 140.844C151.676 140.682 151.646 140.517 151.612 140.347C151.578 140.178 151.544 140.018 151.51 139.87C151.48 139.722 151.451 139.588 151.421 139.469C151.391 139.35 151.368 139.259 151.351 139.195L152.668 138.795ZM148.468 146.189L149.486 145.171L150.505 146.202L149.486 147.22L148.468 146.189ZM151.122 146.202L152.153 145.184L153.171 146.215L152.153 147.233L151.122 146.202ZM149.856 147.984L150.797 147.042L151.752 147.996L150.81 148.938L149.856 147.984ZM161.385 144.095C160.99 144.095 160.627 144.036 160.296 143.917C159.97 143.794 159.685 143.627 159.444 143.415C159.206 143.198 159.021 142.944 158.89 142.651C158.758 142.358 158.693 142.038 158.693 141.69C158.693 141.338 158.737 141.015 158.826 140.723C158.92 140.43 159.045 140.154 159.202 139.895C159.359 139.637 159.539 139.388 159.743 139.151C159.951 138.913 160.167 138.676 160.392 138.438L159.991 137.993L161.022 137.057C161.119 137.168 161.228 137.288 161.346 137.42C161.469 137.547 161.582 137.666 161.684 137.776C161.985 138.099 162.28 138.419 162.568 138.737C162.857 139.051 163.113 139.367 163.338 139.685C163.563 139.999 163.743 140.315 163.879 140.634C164.011 140.948 164.076 141.259 164.076 141.569V141.601C164.072 141.962 164 142.297 163.86 142.606C163.724 142.912 163.523 143.185 163.255 143.427C163.009 143.639 162.729 143.805 162.415 143.924C162.101 144.038 161.758 144.095 161.385 144.095ZM161.308 139.304C161.134 139.499 160.973 139.688 160.825 139.87C160.676 140.052 160.547 140.239 160.436 140.43C160.326 140.621 160.239 140.82 160.175 141.028C160.116 141.232 160.086 141.452 160.086 141.69C160.086 141.864 160.122 142.015 160.195 142.142C160.267 142.269 160.362 142.375 160.481 142.46C160.604 142.541 160.744 142.602 160.901 142.645C161.058 142.683 161.219 142.702 161.385 142.702C161.792 142.702 162.11 142.602 162.339 142.403C162.568 142.199 162.683 141.932 162.683 141.601C162.683 141.402 162.645 141.204 162.568 141.009C162.492 140.814 162.39 140.621 162.263 140.43C162.135 140.239 161.989 140.05 161.824 139.864C161.658 139.673 161.486 139.486 161.308 139.304ZM168.114 143.796C168.089 144.365 167.983 144.878 167.796 145.336C167.614 145.795 167.357 146.185 167.026 146.507C166.7 146.83 166.305 147.078 165.843 147.252C165.38 147.426 164.856 147.513 164.271 147.513H163.393V146.119H164.271C164.695 146.119 165.06 146.075 165.365 145.985C165.675 145.896 165.93 145.754 166.129 145.559C166.328 145.368 166.477 145.116 166.574 144.802C166.672 144.492 166.721 144.115 166.721 143.669V139.698H168.114V143.796ZM166.326 136.943L167.383 135.874L168.464 136.955L167.395 138.025L166.326 136.943ZM170.118 146.119C170.775 146.119 171.314 146.072 171.734 145.979C172.154 145.886 172.485 145.739 172.727 145.54C172.824 145.459 172.909 145.372 172.981 145.279C173.058 145.19 173.119 145.086 173.166 144.967C173.217 144.853 173.255 144.723 173.28 144.579C173.31 144.439 173.327 144.278 173.331 144.095H172.256C171.946 144.095 171.632 144.053 171.314 143.968C171 143.879 170.714 143.733 170.455 143.529C170.2 143.325 169.99 143.056 169.825 142.721C169.664 142.386 169.583 141.972 169.583 141.48C169.583 141.192 169.606 140.933 169.653 140.704C169.704 140.475 169.768 140.271 169.844 140.093C169.92 139.91 170.005 139.753 170.098 139.622C170.192 139.49 170.283 139.376 170.372 139.278C170.614 139.036 170.89 138.85 171.199 138.718C171.513 138.582 171.851 138.515 172.211 138.515C172.525 138.515 172.818 138.563 173.089 138.661C173.365 138.758 173.611 138.905 173.828 139.1C174.12 139.376 174.341 139.724 174.489 140.144C174.642 140.564 174.718 141.066 174.718 141.652V144C174.718 144.305 174.695 144.585 174.648 144.84C174.602 145.099 174.532 145.334 174.438 145.546C174.349 145.763 174.235 145.958 174.095 146.132C173.955 146.31 173.789 146.475 173.598 146.628C173.408 146.777 173.198 146.906 172.968 147.016C172.739 147.131 172.483 147.224 172.198 147.296C171.914 147.368 171.6 147.422 171.257 147.455C170.917 147.494 170.538 147.513 170.118 147.513V146.119ZM172.211 139.908C171.821 139.908 171.518 140.044 171.301 140.315C171.085 140.583 170.977 140.971 170.977 141.48C170.977 141.735 171.015 141.94 171.091 142.097C171.168 142.254 171.28 142.382 171.428 142.479C171.501 142.526 171.577 142.564 171.658 142.594C171.742 142.619 171.823 142.64 171.899 142.657C171.976 142.674 172.044 142.687 172.103 142.695C172.167 142.7 172.218 142.702 172.256 142.702H173.331V141.652C173.331 141.355 173.31 141.107 173.268 140.907C173.225 140.704 173.17 140.538 173.102 140.411C173.034 140.284 172.958 140.186 172.873 140.118C172.792 140.046 172.71 139.995 172.625 139.965C172.544 139.936 172.466 139.919 172.389 139.915C172.317 139.91 172.258 139.908 172.211 139.908ZM180.241 143.796C180.216 144.365 180.11 144.878 179.923 145.336C179.741 145.795 179.484 146.185 179.153 146.507C178.827 146.83 178.432 147.078 177.97 147.252C177.507 147.426 176.983 147.513 176.398 147.513H175.52V146.119H176.398C176.822 146.119 177.187 146.075 177.492 145.985C177.802 145.896 178.057 145.754 178.256 145.559C178.455 145.368 178.604 145.116 178.701 144.802C178.799 144.492 178.848 144.115 178.848 143.669V139.698H180.241V143.796ZM193.182 144.095H192.902C192.571 144.095 192.25 144.062 191.941 143.994C191.635 143.922 191.353 143.818 191.094 143.682C190.835 143.542 190.604 143.37 190.401 143.166C190.201 142.958 190.044 142.719 189.93 142.447C189.828 142.638 189.692 142.804 189.522 142.944C189.357 143.079 189.162 143.194 188.937 143.287C188.653 143.406 188.371 143.476 188.091 143.497C188.006 143.506 187.921 143.51 187.836 143.51C187.645 143.51 187.439 143.485 187.219 143.434C186.998 143.383 186.775 143.287 186.551 143.147C186.33 143.007 186.137 142.833 185.972 142.625C185.806 142.418 185.677 142.18 185.583 141.913C185.49 141.641 185.443 141.344 185.443 141.022C185.443 140.572 185.53 140.167 185.704 139.806C185.882 139.446 186.116 139.128 186.404 138.852C186.697 138.576 187.032 138.341 187.41 138.145C187.787 137.946 188.178 137.783 188.581 137.655C188.559 137.545 188.538 137.443 188.517 137.35C188.496 137.252 188.477 137.153 188.46 137.051L189.796 136.733L190.929 141.308C191.005 141.614 191.122 141.858 191.279 142.04C191.44 142.222 191.614 142.365 191.801 142.466C191.992 142.564 192.185 142.628 192.38 142.657C192.575 142.687 192.749 142.702 192.902 142.702H193.182V144.095ZM189.255 141.003C189.272 140.909 189.281 140.814 189.281 140.716C189.281 140.648 189.272 140.557 189.255 140.443C189.242 140.324 189.217 140.18 189.179 140.01C189.141 139.836 189.098 139.664 189.052 139.495C189.005 139.325 188.965 139.159 188.931 138.998C188.209 139.223 187.656 139.509 187.27 139.857C186.884 140.205 186.691 140.595 186.691 141.028C186.691 141.253 186.744 141.442 186.85 141.595C186.96 141.747 187.098 141.866 187.263 141.951C187.429 142.032 187.613 142.076 187.817 142.085H187.881C188.059 142.085 188.231 142.055 188.396 141.995C188.638 141.894 188.829 141.768 188.969 141.62C189.113 141.467 189.209 141.262 189.255 141.003ZM200.512 144.095C200.181 144.095 199.878 144.038 199.602 143.924C199.331 143.809 199.087 143.675 198.871 143.523C198.629 143.858 198.376 144.087 198.113 144.21C197.85 144.337 197.583 144.401 197.311 144.401C197.104 144.401 196.904 144.38 196.713 144.337C196.522 144.299 196.327 144.24 196.128 144.159C195.933 144.083 195.727 143.989 195.511 143.879C195.294 143.769 195.057 143.644 194.798 143.504C194.615 143.707 194.414 143.858 194.193 143.955C193.973 144.049 193.744 144.095 193.506 144.095H192.927V142.702H193.455C193.565 142.702 193.661 142.666 193.741 142.594C193.822 142.522 193.894 142.426 193.958 142.307C194.021 142.184 194.079 142.042 194.13 141.881C194.185 141.715 194.238 141.539 194.289 141.353C194.344 141.153 194.405 140.95 194.473 140.742C194.541 140.534 194.62 140.332 194.709 140.137C194.802 139.938 194.91 139.751 195.033 139.577C195.161 139.403 195.309 139.251 195.479 139.119C195.648 138.988 195.844 138.884 196.064 138.807C196.285 138.731 196.539 138.693 196.828 138.693C197.261 138.693 197.636 138.771 197.954 138.928C198.272 139.085 198.538 139.297 198.75 139.565C198.962 139.832 199.119 140.142 199.221 140.494C199.327 140.846 199.38 141.215 199.38 141.601C199.38 141.86 199.428 142.063 199.526 142.212C199.628 142.356 199.742 142.466 199.87 142.543C200.001 142.615 200.128 142.659 200.251 142.676C200.379 142.693 200.466 142.702 200.512 142.702H200.697V144.095H200.512ZM197.311 143.007C197.341 143.007 197.379 143.007 197.426 143.007C197.477 143.003 197.532 142.988 197.591 142.963C197.651 142.937 197.71 142.897 197.77 142.842C197.833 142.787 197.891 142.708 197.941 142.606C197.992 142.5 198.033 142.367 198.062 142.205C198.096 142.044 198.113 141.843 198.113 141.601C198.113 141.558 198.107 141.491 198.094 141.397C198.081 141.304 198.058 141.202 198.024 141.092C197.99 140.977 197.944 140.861 197.884 140.742C197.825 140.623 197.746 140.515 197.649 140.417C197.555 140.32 197.441 140.239 197.305 140.175C197.169 140.112 197.01 140.08 196.828 140.08C196.658 140.08 196.51 140.114 196.382 140.182C196.255 140.25 196.145 140.343 196.051 140.462C195.958 140.576 195.878 140.708 195.81 140.856C195.746 141.005 195.687 141.16 195.631 141.321C195.581 141.482 195.534 141.643 195.491 141.805C195.449 141.966 195.404 142.114 195.358 142.25C195.523 142.339 195.695 142.43 195.873 142.524C196.056 142.613 196.232 142.695 196.401 142.772C196.575 142.844 196.741 142.901 196.898 142.944C197.042 142.986 197.169 143.007 197.28 143.007H197.311ZM206.504 137.127C206.852 137.59 207.185 138.029 207.503 138.445C207.634 138.623 207.77 138.803 207.91 138.985C208.05 139.168 208.184 139.344 208.311 139.514C208.442 139.679 208.563 139.834 208.674 139.978C208.784 140.118 208.875 140.235 208.947 140.328C209.083 140.502 209.191 140.695 209.272 140.907C209.357 141.115 209.416 141.327 209.45 141.544C209.467 141.684 209.475 141.822 209.475 141.957C209.475 142.038 209.469 142.152 209.456 142.301C209.448 142.445 209.414 142.608 209.355 142.791C209.274 143.037 209.155 143.262 208.998 143.465C208.841 143.669 208.648 143.845 208.419 143.994C208.194 144.142 207.935 144.257 207.643 144.337C207.35 144.418 207.03 144.458 206.682 144.458C206.385 144.458 206.075 144.426 205.753 144.363C205.435 144.303 205.11 144.191 204.779 144.025C204.694 143.992 204.614 143.955 204.537 143.917C204.469 143.888 204.399 143.856 204.327 143.822C204.259 143.788 204.202 143.758 204.155 143.733C203.354 143.975 202.352 144.095 201.152 144.095H200.439V142.702H201.152C201.394 142.702 201.619 142.7 201.826 142.695C202.039 142.691 202.249 142.678 202.456 142.657C202.202 142.398 202.002 142.114 201.858 141.805C201.714 141.491 201.642 141.138 201.642 140.748C201.642 140.413 201.705 140.105 201.833 139.825C201.964 139.545 202.142 139.306 202.367 139.106C202.592 138.907 202.857 138.752 203.163 138.642C203.468 138.527 203.797 138.47 204.149 138.47C204.412 138.47 204.656 138.506 204.881 138.578C205.106 138.65 205.309 138.748 205.492 138.871C205.679 138.994 205.842 139.136 205.982 139.297C206.122 139.458 206.239 139.628 206.332 139.806C206.429 139.98 206.502 140.158 206.548 140.341C206.599 140.519 206.625 140.689 206.625 140.85C206.625 141.274 206.542 141.658 206.376 142.002C206.211 142.341 205.982 142.645 205.689 142.912C205.842 142.967 206.005 143.014 206.179 143.052C206.353 143.09 206.521 143.109 206.682 143.109C206.822 143.109 206.968 143.098 207.121 143.077C207.274 143.052 207.418 143.009 207.554 142.95C207.689 142.886 207.81 142.802 207.916 142.695C208.027 142.589 208.109 142.454 208.165 142.288C208.186 142.22 208.196 142.148 208.196 142.072C208.196 141.923 208.143 141.73 208.037 141.493C207.935 141.255 207.753 140.954 207.49 140.589C207.231 140.22 206.922 139.815 206.561 139.374C206.2 138.932 205.816 138.459 205.409 137.955L206.504 137.127ZM202.953 140.748C202.953 141.088 203.059 141.385 203.271 141.639C203.483 141.894 203.801 142.133 204.225 142.358C204.37 142.29 204.508 142.205 204.639 142.104C204.771 142.002 204.887 141.887 204.989 141.76C205.091 141.628 205.172 141.488 205.231 141.34C205.295 141.187 205.326 141.03 205.326 140.869C205.326 140.674 205.284 140.504 205.199 140.36C205.119 140.212 205.017 140.088 204.894 139.991C204.775 139.893 204.648 139.821 204.512 139.775C204.376 139.728 204.255 139.705 204.149 139.705C203.992 139.705 203.842 139.734 203.697 139.794C203.553 139.849 203.426 139.925 203.315 140.023C203.205 140.116 203.116 140.226 203.048 140.354C202.985 140.477 202.953 140.608 202.953 140.748Z" fill="white"/>
<rect x="16" y="176" width="198" height="40" rx="8" fill="#F0B90B"/>
<path d="M95.481 201.109C95.6556 201.293 95.7841 201.485 95.8665 201.684C95.9537 201.887 95.9974 202.081 95.9974 202.265C95.9974 202.702 95.8762 203.095 95.6337 203.444C95.3962 203.798 95.0713 204.098 94.6592 204.345C94.2471 204.593 93.7671 204.784 93.2192 204.92C92.6713 205.056 92.0895 205.124 91.4738 205.124H89.6119C89.2241 205.124 88.8507 205.078 88.4919 204.985C88.138 204.898 87.8059 204.77 87.4956 204.6C87.1853 204.435 86.8992 204.232 86.6374 203.989C86.3804 203.752 86.1525 203.482 85.9538 203.182C85.4834 202.421 85.2483 201.531 85.2483 200.513C85.2483 199.882 85.3331 199.23 85.5028 198.556C85.6774 197.882 85.9586 197.143 86.3465 196.338L87.7574 197.022C87.5974 197.366 87.4592 197.693 87.3428 198.004C87.2265 198.309 87.1295 198.605 87.0519 198.891C86.9792 199.172 86.9259 199.444 86.8919 199.705C86.858 199.967 86.841 200.224 86.841 200.476C86.841 201.199 87.001 201.815 87.321 202.324C87.5537 202.712 87.8713 203.007 88.2738 203.211C88.6762 203.415 89.1222 203.516 89.6119 203.516H91.4738C91.8616 203.516 92.2277 203.478 92.5719 203.4C92.9162 203.322 93.2168 203.218 93.4738 203.087C93.7356 202.956 93.9441 202.801 94.0992 202.622C94.2544 202.447 94.3392 202.258 94.3538 202.055C94.2131 201.895 94.0265 201.756 93.7937 201.64C93.561 201.528 93.2992 201.436 93.0083 201.364C92.7222 201.291 92.4144 201.233 92.0847 201.189C91.755 201.15 91.4204 201.124 91.081 201.109L91.1319 199.516H97.7283V201.109H95.481ZM99.9189 195.051C99.9286 195.08 99.948 195.16 99.9771 195.291C100.006 195.417 100.04 195.575 100.079 195.764C100.123 195.953 100.164 196.161 100.203 196.389C100.246 196.617 100.285 196.847 100.319 197.08C100.358 197.308 100.389 197.531 100.413 197.749C100.438 197.962 100.45 198.149 100.45 198.309C100.45 198.789 100.37 199.206 100.21 199.56C100.05 199.914 99.8413 200.205 99.5844 200.433C99.3323 200.661 99.0462 200.83 98.7262 200.942C98.4062 201.053 98.0862 201.109 97.7662 201.109H95.8026V199.516H97.8171C97.8801 199.516 97.9723 199.507 98.0935 199.487C98.2195 199.468 98.3432 199.419 98.4644 199.342C98.5856 199.259 98.6898 199.138 98.7771 198.978C98.8692 198.818 98.9153 198.595 98.9153 198.309C98.9153 198.202 98.9056 198.069 98.8862 197.909C98.8668 197.749 98.8426 197.577 98.8135 197.393C98.7844 197.208 98.7504 197.019 98.7116 196.825C98.6729 196.632 98.6341 196.45 98.5953 196.28C98.5613 196.11 98.5274 195.958 98.4935 195.822C98.4595 195.686 98.4329 195.582 98.4135 195.509L99.9189 195.051ZM97.4535 192.076L98.6607 190.855L99.8971 192.091L98.6753 193.313L97.4535 192.076ZM105.62 201.109C105.116 201.109 104.684 201.078 104.326 201.015C103.967 200.952 103.664 200.857 103.416 200.731C103.174 200.605 102.978 200.447 102.827 200.258C102.682 200.064 102.57 199.839 102.493 199.582C102.415 199.32 102.364 199.027 102.34 198.702C102.316 198.377 102.304 198.016 102.304 197.618V190.622H103.896V197.618C103.896 198.025 103.909 198.355 103.933 198.607C103.962 198.855 104.032 199.046 104.144 199.182C104.26 199.318 104.432 199.407 104.66 199.451C104.893 199.495 105.213 199.516 105.62 199.516V201.109ZM111.412 199.516V201.109H110.881C110.454 201.109 110.071 201.051 109.732 200.935C109.392 200.813 109.113 200.636 108.895 200.404C108.633 200.632 108.313 200.806 107.935 200.927C107.562 201.048 107.138 201.109 106.663 201.109H105.332V199.516H106.663C106.983 199.516 107.237 199.485 107.426 199.422C107.62 199.359 107.766 199.281 107.863 199.189C107.96 199.092 108.023 198.988 108.052 198.876C108.081 198.76 108.095 198.648 108.095 198.542V196.076H109.681V198.491C109.681 198.656 109.705 198.796 109.753 198.913C109.807 199.024 109.872 199.119 109.95 199.196C110.027 199.269 110.112 199.327 110.204 199.371C110.296 199.415 110.386 199.448 110.473 199.473C110.566 199.492 110.648 199.504 110.721 199.509C110.793 199.514 110.847 199.516 110.881 199.516H111.412ZM107.004 203.72L108.212 202.498L109.448 203.735L108.226 204.956L107.004 203.72ZM119.158 199.516V201.109H117.994C117.567 201.109 117.184 201.051 116.845 200.935C116.505 200.813 116.227 200.636 116.009 200.404C115.747 200.632 115.427 200.806 115.049 200.927C114.675 201.048 114.251 201.109 113.776 201.109H111.15V199.516H113.776C114.096 199.516 114.35 199.485 114.539 199.422C114.733 199.359 114.879 199.281 114.976 199.189C115.073 199.092 115.136 198.988 115.165 198.876C115.194 198.76 115.209 198.648 115.209 198.542V196.076H116.794V198.491C116.794 198.656 116.818 198.796 116.867 198.913C116.92 199.024 116.985 199.119 117.063 199.196C117.141 199.269 117.225 199.327 117.318 199.371C117.41 199.415 117.499 199.448 117.587 199.473C117.679 199.492 117.761 199.504 117.834 199.509C117.907 199.514 117.96 199.516 117.994 199.516H119.158ZM115.979 205L114.83 203.836L115.965 202.658L117.143 203.836L115.979 205ZM113.209 204.985L112.059 203.822L113.194 202.644L114.372 203.822L113.209 204.985ZM124.302 194.091L123.153 192.927L124.287 191.749L125.465 192.927L124.302 194.091ZM121.378 194.076L120.229 192.913L121.356 191.735L122.535 192.913L121.378 194.076ZM126.876 199.516V201.109H125.713C125.286 201.109 124.903 201.051 124.564 200.935C124.224 200.813 123.945 200.636 123.727 200.404C123.465 200.632 123.145 200.806 122.767 200.927C122.394 201.048 121.97 201.109 121.495 201.109H118.869V199.516H121.495C121.815 199.516 122.069 199.485 122.258 199.422C122.452 199.359 122.598 199.281 122.695 199.189C122.792 199.092 122.855 198.988 122.884 198.876C122.913 198.76 122.927 198.648 122.927 198.542V196.076H124.513V198.491C124.513 198.656 124.537 198.796 124.585 198.913C124.639 199.024 124.704 199.119 124.782 199.196C124.859 199.269 124.944 199.327 125.036 199.371C125.128 199.415 125.218 199.448 125.305 199.473C125.398 199.492 125.48 199.504 125.553 199.509C125.625 199.514 125.679 199.516 125.713 199.516H126.876ZM126.508 199.516H127.424C127.735 199.516 127.984 199.49 128.173 199.436C128.367 199.383 128.518 199.305 128.624 199.204C128.731 199.097 128.801 198.968 128.835 198.818C128.874 198.668 128.893 198.498 128.893 198.309V196.084H130.486V198.273C130.486 198.704 130.588 199.019 130.791 199.218C131 199.412 131.33 199.512 131.781 199.516C131.858 199.512 131.955 199.497 132.071 199.473C132.193 199.444 132.307 199.388 132.413 199.305C132.525 199.218 132.619 199.097 132.697 198.942C132.775 198.782 132.813 198.571 132.813 198.309V196.084H134.399V198.273C134.399 198.709 134.503 199.027 134.711 199.225C134.92 199.419 135.255 199.516 135.715 199.516C135.846 199.516 135.975 199.497 136.101 199.458C136.227 199.415 136.341 199.347 136.442 199.255C136.544 199.162 136.627 199.044 136.69 198.898C136.758 198.748 136.796 198.564 136.806 198.345V196.084H138.399V198.345C138.408 198.758 138.532 199.056 138.77 199.24C139.007 199.424 139.368 199.516 139.853 199.516H140.61V201.109H139.853C139.359 201.109 138.922 201.048 138.544 200.927C138.171 200.801 137.856 200.612 137.599 200.36C137.366 200.612 137.082 200.801 136.748 200.927C136.418 201.048 136.074 201.109 135.715 201.109C135.259 201.109 134.859 201.048 134.515 200.927C134.171 200.801 133.868 200.615 133.606 200.367C133.359 200.6 133.075 200.782 132.755 200.913C132.44 201.039 132.125 201.104 131.81 201.109H131.759C131.318 201.109 130.927 201.046 130.588 200.92C130.248 200.789 129.955 200.615 129.708 200.396C129.431 200.634 129.107 200.813 128.733 200.935C128.36 201.051 127.924 201.109 127.424 201.109H126.508V199.516ZM133.126 193.073L131.962 194.251L130.799 193.087L131.962 191.909L133.126 193.073ZM136.246 193.044L135.097 194.207L133.897 193.058L135.075 191.88L136.246 193.044ZM134.639 190.993L133.548 192.084L132.471 191.007L133.562 189.916L134.639 190.993ZM145.759 195.051C145.769 195.08 145.788 195.16 145.817 195.291C145.847 195.417 145.88 195.575 145.919 195.764C145.963 195.953 146.004 196.161 146.043 196.389C146.087 196.617 146.125 196.847 146.159 197.08C146.198 197.308 146.23 197.531 146.254 197.749C146.278 197.962 146.29 198.149 146.29 198.309C146.29 198.789 146.21 199.206 146.05 199.56C145.89 199.914 145.682 200.205 145.425 200.433C145.173 200.661 144.887 200.83 144.567 200.942C144.247 201.053 143.927 201.109 143.607 201.109H140.37V199.516H143.657C143.72 199.516 143.813 199.507 143.934 199.487C144.06 199.468 144.184 199.419 144.305 199.342C144.426 199.259 144.53 199.138 144.617 198.978C144.71 198.818 144.756 198.595 144.756 198.309C144.756 198.202 144.746 198.069 144.727 197.909C144.707 197.749 144.683 197.577 144.654 197.393C144.625 197.208 144.591 197.019 144.552 196.825C144.513 196.632 144.474 196.45 144.436 196.28C144.402 196.11 144.368 195.958 144.334 195.822C144.3 195.686 144.273 195.582 144.254 195.509L145.759 195.051ZM140.959 203.502L142.123 202.338L143.287 203.516L142.123 204.68L140.959 203.502ZM143.992 203.516L145.17 202.353L146.334 203.531L145.17 204.695L143.992 203.516ZM142.545 205.553L143.621 204.476L144.712 205.567L143.636 206.644L142.545 205.553Z" fill="#171717"/>
<path d="M183.5 134L153.317 68H86.087L50.5 134H183.5Z" fill="url(#paint0_linear_80_11779)"/>
<path d="M119.564 33.5198C119.288 33.5198 119.064 33.4417 119.064 33.3452V0.17463C119.064 0.0781237 119.288 0 119.564 0C119.841 0 120.064 0.0781237 120.064 0.17463V33.3452C120.064 33.4417 119.841 33.5198 119.564 33.5198Z" fill="#845752"/>
<path d="M125.219 35.5006V41.4606C125.219 42.7706 124.169 43.8306 122.859 43.8306H116.38C115.07 43.8306 114.02 42.7706 114.02 41.4606V35.5006C114.02 34.1906 115.07 33.1406 116.38 33.1406H122.859C123.749 33.1406 124.52 33.6306 124.93 34.3506C125.11 34.7006 125.219 35.0906 125.219 35.5006Z" fill="#6B4441"/>
<path d="M125.219 35.4996V41.4596C125.219 42.7696 124.169 43.8296 122.859 43.8296H116.38C115.07 43.8296 114.02 42.7696 114.02 41.4596V38.5996C115.12 38.9996 116.429 39.2196 117.789 38.8996C121.359 38.0496 122.88 35.1696 122.88 35.1696L122.2 38.8996C122.2 38.8996 124.239 37.0696 124.919 34.3496C125.109 34.6996 125.219 35.0896 125.219 35.4996Z" fill="#442A29"/>
<path d="M154.24 68.8207H85.0098C85.0098 68.5507 85.0197 68.2607 85.0297 67.9907C85.1697 64.4407 86.1497 61.0607 87.8397 57.9807C91.7297 50.8607 99.3498 45.3007 108.75 42.8407C109.34 42.6907 109.93 42.5507 110.54 42.4207C113.43 41.8007 116.49 41.4707 119.63 41.4707C136.51 41.4707 150.55 51.0107 153.62 63.6407C154.02 65.3107 154.24 67.0407 154.24 68.8207Z" fill="#F0B90B"/>
<path d="M154.24 68.819H153.8C152.01 65.659 148.32 61.049 140.71 55.199C131.17 47.879 117.6 44.409 108.75 42.829C109.34 42.679 109.93 42.539 110.54 42.409C113.43 41.789 116.49 41.459 119.63 41.459C136.51 41.459 150.55 50.999 153.62 63.629C154.02 65.309 154.24 67.039 154.24 68.819Z" fill="#F0B90B"/>
<path d="M154.24 68.8202H145.34C144.29 67.0302 143.04 64.3902 140.37 61.6502C133.41 54.5202 121.36 51.4702 121.36 51.4702L126.45 59.9502C126.45 59.9502 119.33 54.1802 106.77 53.1602C97.6601 52.4302 90.8701 55.9702 87.8301 57.9702C91.9701 50.4002 100.31 44.6002 110.52 42.4102C134.56 45.7402 147.24 55.8802 153.6 63.6202C154.02 65.3102 154.24 67.0402 154.24 68.8202Z" fill="#E0AF15"/>
<path d="M144.97 68.8204H85C85 68.5504 85.01 68.2604 85.02 67.9904C86.55 67.1804 88.79 66.6304 93.19 65.7204C98.11 64.7104 101.34 64.7004 101.34 64.7004C101.34 64.7004 94.38 64.1904 100.49 61.8204C106.6 59.4504 116.28 61.3104 115.25 62.6704C114.23 64.0304 109.82 64.3704 109.82 64.3704C109.82 64.3704 132.9 64.3704 144.1 67.4204C145.67 67.8504 145.84 68.3204 144.97 68.8204Z" fill="#FED551"/>
<path d="M154.24 68.8193C154.24 69.8593 141.02 70.7093 123.94 70.8393C122.53 70.8493 121.08 70.8593 119.63 70.8593C100.51 70.8593 85.0195 69.9393 85.0195 68.8193C85.0195 68.2693 88.6895 67.7693 94.6695 67.4093C100.969 67.0293 109.83 66.7793 119.63 66.7793C138.74 66.7793 154.24 67.6993 154.24 68.8193Z" fill="white"/>
<path d="M154.24 68.8193C154.24 69.8593 141.02 70.7093 123.94 70.8393C129.77 70.3993 135.79 69.7693 138.08 68.9493C141.97 67.5493 109.12 67.4093 94.6602 67.4093C100.96 67.0293 109.82 66.7793 119.62 66.7793C138.74 66.7793 154.24 67.6993 154.24 68.8193Z" fill="#FFF0C1"/>
<defs>
<linearGradient id="paint0_linear_80_11779" x1="117" y1="45" x2="115.5" y2="131" gradientUnits="userSpaceOnUse">
<stop stop-color="#F0B90B"/>
<stop offset="1" stop-color="#C4C4C4" stop-opacity="0"/>
</linearGradient>
</defs>
</svg>
